<?xml version="1.0" standalone="no"?><!DOCTYPE svg PUBLIC "-//W3C//DTD SVG 1.1//EN" "http://www.w3.org/Graphics/SVG/1.1/DTD/svg11.dtd"><svg t="1583220423032" class="icon" viewBox="0 0 1024 1024" version="1.1" xmlns="http://www.w3.org/2000/svg" p-id="4636" xmlns:xlink="http://www.w3.org/1999/xlink" width="200" height="200"><defs><style type="text/css"></style></defs><path d="M391.283772 275.991375q9.151714 0 15.711509-6.559795t6.559795-15.711509-6.559795-15.711509-15.711509-6.559795-15.423518 6.559795-6.271804 15.711509 6.271804 15.711509 15.423518 6.559795zM632.396238 275.991375q9.151714 0 15.423518-6.559795t6.271804-15.711509-6.271804-15.711509-15.423518-6.559795-15.711509 6.559795-6.559795 15.711509 6.559795 15.711509 15.711509 6.559795zM168.410737 381.140089q23.99925 0 41.150714 17.151464t17.151464 41.150714l0 245.720321q0 24.575232-16.863473 41.726696t-41.438705 17.151464-41.726696-17.151464-17.151464-41.726696l0-245.720321q0-23.99925 17.151464-41.150714t41.726696-17.151464zM774.119809 391.98775l0 380.564107q0 26.271179-18.271429 44.574607t-43.998625 18.271429l-42.846661 0 0 129.723946q0 24.575232-17.151464 41.726696t-41.726696 17.151464-41.726696-17.151464-17.151464-41.726696l0-129.723946-78.845536 0 0 129.723946q0 24.575232-17.151464 41.726696t-41.726696 17.151464q-23.99925 0-41.150714-17.151464t-17.151464-41.726696l-0.575982-129.723946-42.270679 0q-26.271179 0-44.574607-18.271429t-18.271429-44.574607l0-380.564107 524.559608 0zM641.547952 160.570982q61.150089 31.423018 97.724946 87.709259t36.574857 123.132152l-528.559483 0q0-66.845911 36.574857-123.132152t98.268929-87.709259l-40.574732-74.845661q-3.999875-7.423768 2.847911-11.423643 7.423768-3.423893 11.423643 3.423893l41.150714 75.421643q54.270304-23.99925 114.844411-23.99925t114.844411 23.99925l41.150714-75.421643q3.999875-6.847786 11.423643-3.423893 6.847786 3.999875 2.847911 11.423643zM914.115434 439.410268l0 245.720321q0 24.575232-17.151464 41.726696t-41.726696 17.151464q-23.99925 0-41.150714-17.151464t-17.151464-41.726696l0-245.720321q0-24.575232 17.151464-41.438705t41.150714-16.863473q24.575232 0 41.726696 16.863473t17.151464 41.438705z" p-id="4637"></path></svg>