<?xml version="1.0" standalone="no"?><!DOCTYPE svg PUBLIC "-//W3C//DTD SVG 1.1//EN" "http://www.w3.org/Graphics/SVG/1.1/DTD/svg11.dtd"><svg t="1585218204523" class="icon" viewBox="0 0 1029 1024" version="1.1" xmlns="http://www.w3.org/2000/svg" p-id="1387" xmlns:xlink="http://www.w3.org/1999/xlink" width="200.9765625" height="200"><defs><style type="text/css"></style></defs><path d="M887.466667 0H136.533333C62.577778 0 0 62.577778 0 136.533333v614.4c0 73.955556 62.577778 136.533333 136.533333 136.533334h136.533334l39.822222 102.4c5.688889 17.066667 17.066667 22.755556 34.133333 28.444444h17.066667c11.377778 0 17.066667 0 28.444444-5.688889l204.8-125.155555h295.822223c73.955556 0 136.533333-62.577778 136.533333-136.533334V136.533333C1024 62.577778 961.422222 0 887.466667 0zM244.622222 517.688889C204.8 517.688889 170.666667 489.244444 170.666667 449.422222s34.133333-73.955556 73.955555-73.955555 73.955556 34.133333 73.955556 73.955555S284.444444 517.688889 244.622222 517.688889z m267.377778 0c-39.822222 0-73.955556-34.133333-73.955556-73.955556S472.177778 375.466667 512 375.466667s73.955556 34.133333 73.955556 73.955555S551.822222 517.688889 512 517.688889z m267.377778 0c-39.822222 0-73.955556-34.133333-73.955556-73.955556s34.133333-73.955556 73.955556-73.955555 73.955556 39.822222 73.955555 79.644444-34.133333 68.266667-73.955555 68.266667z" p-id="1388"></path></svg>