<?xml version="1.0" standalone="no"?><!DOCTYPE svg PUBLIC "-//W3C//DTD SVG 1.1//EN" "http://www.w3.org/Graphics/SVG/1.1/DTD/svg11.dtd"><svg t="1585218221858" class="icon" viewBox="0 0 1024 1024" version="1.1" xmlns="http://www.w3.org/2000/svg" p-id="1772" xmlns:xlink="http://www.w3.org/1999/xlink" width="200" height="200"><defs><style type="text/css"></style></defs><path d="M512 0C227.555556 0 0 227.555556 0 512s227.555556 512 512 512 512-227.555556 512-512-227.555556-512-512-512zM233.244444 529.066667c11.377778 5.688889 28.444444 11.377778 39.822223 17.066666 22.755556 11.377778 39.822222 17.066667 56.888889 28.444445 17.066667 5.688889 34.133333 22.755556 22.755555 51.2-5.688889 11.377778-11.377778 17.066667-22.755555 22.755555-11.377778 5.688889-22.755556 0-34.133334-5.688889-17.066667-5.688889-34.133333-17.066667-51.2-22.755555-45.511111-22.755556-91.022222-39.822222-136.533333-62.577778-11.377778-11.377778-22.755556-28.444444-22.755556-39.822222 0-11.377778 11.377778-34.133333 22.755556-39.822222C170.666667 449.422222 238.933333 420.977778 301.511111 398.222222c5.688889 0 11.377778-5.688889 22.755556-5.688889s28.444444 5.688889 34.133333 22.755556c11.377778 28.444444-5.688889 45.511111-22.755556 51.2-28.444444 17.066667-45.511111 22.755556-68.266666 34.133333-11.377778 5.688889-22.755556 5.688889-34.133334 11.377778l-11.377777 5.688889 11.377777 11.377778z m358.4-147.911111C568.888889 449.422222 546.133333 512 523.377778 574.577778l-28.444445 85.333333c-5.688889 22.755556-17.066667 34.133333-28.444444 39.822222-5.688889 5.688889-17.066667 5.688889-28.444445 0-28.444444-11.377778-34.133333-28.444444-17.066666-62.577777 22.755556-62.577778 45.511111-125.155556 62.577778-187.733334 11.377778-34.133333 22.755556-62.577778 28.444444-96.711111 5.688889-11.377778 17.066667-22.755556 28.444444-28.444444 5.688889 0 5.688889-5.688889 11.377778-5.688889h11.377778c11.377778 5.688889 28.444444 5.688889 34.133333 28.444444 0 17.066667-5.688889 28.444444-5.688889 34.133334z m329.955556 164.977777c-68.266667 34.133333-136.533333 68.266667-204.8 91.022223-11.377778 5.688889-34.133333 0-45.511111-17.066667-5.688889-17.066667 0-34.133333 17.066667-45.511111 17.066667-11.377778 39.822222-22.755556 62.577777-34.133334l34.133334-17.066666 17.066666-5.688889-17.066666-5.688889c-11.377778-5.688889-22.755556-11.377778-34.133334-11.377778-22.755556-11.377778-39.822222-17.066667-62.577777-28.444444-17.066667-5.688889-34.133333-22.755556-22.755556-51.2 5.688889-11.377778 11.377778-22.755556 22.755556-22.755556h11.377777c5.688889 0 11.377778 0 17.066667 5.688889 62.577778 28.444444 130.844444 51.2 199.111111 85.333333 11.377778 5.688889 22.755556 17.066667 22.755556 34.133334 0 0-5.688889 11.377778-17.066667 22.755555z" p-id="1773"></path></svg>