<?xml version="1.0" standalone="no"?><!DOCTYPE svg PUBLIC "-//W3C//DTD SVG 1.1//EN" "http://www.w3.org/Graphics/SVG/1.1/DTD/svg11.dtd"><svg t="1585218259321" class="icon" viewBox="0 0 1024 1024" version="1.1" xmlns="http://www.w3.org/2000/svg" p-id="2550" xmlns:xlink="http://www.w3.org/1999/xlink" width="200" height="200"><defs><style type="text/css"></style></defs><path d="M147.911111 290.133333c62.577778 0 108.088889 51.2 108.088889 108.088889v512c0 62.577778-51.2 108.088889-108.088889 108.088889S39.822222 967.111111 39.822222 910.222222V398.222222c-5.688889-56.888889 45.511111-108.088889 108.088889-108.088889z m728.177778 147.911111c62.577778 0 108.088889 51.2 108.088889 108.088889V910.222222c0 62.577778-51.2 108.088889-108.088889 108.088889s-108.088889-51.2-108.088889-108.088889V546.133333c0-56.888889 51.2-108.088889 108.088889-108.088889zM512 0c62.577778 0 108.088889 51.2 108.088889 108.088889V910.222222c0 62.577778-51.2 108.088889-108.088889 108.088889S403.911111 967.111111 403.911111 910.222222V108.088889c0-28.444444 11.377778-56.888889 34.133333-79.644445C455.111111 11.377778 483.555556 0 512 0z" p-id="2551"></path></svg>