<?xml version="1.0" standalone="no"?><!DOCTYPE svg PUBLIC "-//W3C//DTD SVG 1.1//EN" "http://www.w3.org/Graphics/SVG/1.1/DTD/svg11.dtd"><svg t="1585218215414" class="icon" viewBox="0 0 1024 1024" version="1.1" xmlns="http://www.w3.org/2000/svg" p-id="1643" xmlns:xlink="http://www.w3.org/1999/xlink" width="200" height="200"><defs><style type="text/css"></style></defs><path d="M898.844444 0H125.155556C56.888889 0 0 56.888889 0 125.155556v768C0 967.111111 56.888889 1024 125.155556 1024h768c68.266667 0 125.155556-56.888889 125.155555-125.155556V125.155556C1024 56.888889 967.111111 0 898.844444 0z m-125.155555 870.4c-34.133333 11.377778-68.266667-5.688889-79.644445-39.822222l-45.511111-130.844445H381.155556l-45.511112 130.844445c-11.377778 34.133333-51.2 51.2-79.644444 39.822222-34.133333-11.377778-51.2-51.2-39.822222-79.644444L432.355556 187.733333c11.377778-28.444444 45.511111-45.511111 79.644444-39.822222 34.133333-11.377778 68.266667 5.688889 79.644444 39.822222l216.177778 603.022223c11.377778 34.133333-5.688889 68.266667-34.133333 79.644444z" p-id="1644"></path><path d="M426.666667 574.577778h170.666666L512 347.022222z" p-id="1645"></path></svg>