<?xml version="1.0" standalone="no"?><!DOCTYPE svg PUBLIC "-//W3C//DTD SVG 1.1//EN" "http://www.w3.org/Graphics/SVG/1.1/DTD/svg11.dtd"><svg t="1585218241154" class="icon" viewBox="0 0 1024 1024" version="1.1" xmlns="http://www.w3.org/2000/svg" p-id="2165" xmlns:xlink="http://www.w3.org/1999/xlink" width="200" height="200"><defs><style type="text/css"></style></defs><path d="M842.13248 238.933333L295.999147 682.666667c-11.377778 11.377778-28.444444 11.377778-39.822223 5.688889l-227.555555-73.955556c-34.133333-11.377778-39.822222-56.888889-5.688889-73.955556L961.599147 17.066667c28.444444-17.066667 68.266667 11.377778 62.577777 45.511111l-119.466666 853.333333c-5.688889 22.755556-22.755556 39.822222-45.511111 34.133333-5.688889 0-5.688889 0-11.377778-5.688888l-210.488889-96.711112c-17.066667-5.688889-34.133333-5.688889-45.511111 5.688889l-147.911111 147.911111c-28.444444 22.755556-73.955556 5.688889-73.955556-34.133333v-193.422222c0-11.377778 5.688889-17.066667 11.377778-28.444445l460.8-506.311111z" p-id="2166"></path></svg>