<?xml version="1.0" standalone="no"?><!DOCTYPE svg PUBLIC "-//W3C//DTD SVG 1.1//EN" "http://www.w3.org/Graphics/SVG/1.1/DTD/svg11.dtd"><svg t="1585218210372" class="icon" viewBox="0 0 1024 1024" version="1.1" xmlns="http://www.w3.org/2000/svg" p-id="1515" xmlns:xlink="http://www.w3.org/1999/xlink" width="200" height="200"><defs><style type="text/css"></style></defs><path d="M512 0C227.555556 0 0 227.555556 0 512s227.555556 512 512 512 512-227.555556 512-512-227.555556-512-512-512z m-5.688889 347.022222c-28.444444 102.4-62.577778 210.488889-96.711111 329.955556-5.688889 22.755556-11.377778 62.577778-51.2 62.577778s-45.511111-39.822222-51.2-62.577778L210.488889 347.022222c0-5.688889 0-5.688889-5.688889-11.377778 0-22.755556 11.377778-39.822222 34.133333-39.822222h17.066667c17.066667 0 34.133333 11.377778 39.822222 28.444445 0 11.377778 22.755556 85.333333 62.577778 221.866666 22.755556-79.644444 45.511111-153.6 62.577778-227.555555 5.688889-17.066667 22.755556-28.444444 39.822222-28.444445h17.066667c5.688889 0 11.377778 0 17.066666 5.688889 17.066667 11.377778 22.755556 34.133333 11.377778 51.2z m176.355556 403.911111c-79.644444 0-130.844444-39.822222-147.911111-113.777777V625.777778c0-22.755556 22.755556-34.133333 39.822222-34.133334 22.755556 0 39.822222 17.066667 45.511111 39.822223 0 5.688889 5.688889 11.377778 11.377778 17.066666 11.377778 11.377778 28.444444 22.755556 51.2 22.755556 39.822222 0 68.266667-22.755556 68.266666-56.888889 0-22.755556-11.377778-39.822222-28.444444-51.2-17.066667-11.377778-39.822222-17.066667-56.888889-17.066667-28.444444-5.688889-62.577778-22.755556-85.333333-39.822222-28.444444-22.755556-39.822222-56.888889-39.822223-91.022222 0-34.133333 11.377778-68.266667 39.822223-96.711111 22.755556-22.755556 62.577778-34.133333 96.711111-34.133334 73.955556 0 119.466667 28.444444 136.533333 91.022223 5.688889 11.377778 17.066667 45.511111-34.133333 45.511111s-51.2-28.444444-56.888889-34.133334l-5.688889-5.688888c-11.377778-11.377778-28.444444-17.066667-45.511111-17.066667-11.377778 0-28.444444 5.688889-39.822222 11.377778 0 11.377778-5.688889 22.755556-5.688889 39.822222 0 17.066667 11.377778 28.444444 22.755555 34.133333 17.066667 11.377778 39.822222 22.755556 56.888889 28.444445 34.133333 5.688889 62.577778 22.755556 91.022222 39.822222 28.444444 22.755556 45.511111 56.888889 39.822223 91.022222 0 96.711111-51.2 142.222222-153.6 142.222222z" p-id="1516"></path></svg>