<?xml version="1.0" standalone="no"?><!DOCTYPE svg PUBLIC "-//W3C//DTD SVG 1.1//EN" "http://www.w3.org/Graphics/SVG/1.1/DTD/svg11.dtd"><svg t="1583977763486" class="icon" viewBox="0 0 1024 1024" version="1.1" xmlns="http://www.w3.org/2000/svg" p-id="4409" xmlns:xlink="http://www.w3.org/1999/xlink" width="200" height="200"><defs><style type="text/css"></style></defs><path d="M511.70542063 114.02326359l26.80672318-46.24896197c16.49644503-28.86877882 53.31886698-38.58989821 82.18764579-22.09345318 28.86877882 16.49644503 38.58989821 53.31886698 22.09345316 82.18764579l-257.75695364 446.28775402h186.46874475c60.388772 0 94.26540019 70.99362951 68.04783574 120.18838524h-546.4447417c-33.28746944 0-60.09419262-26.80672317-60.0941926-60.09419264 0-33.28746944 26.80672317-60.09419262 60.0941926-60.0941926h153.18127532l196.18986413-339.94459943-61.27251012-106.34315459c-16.49644503-28.86877882-6.77532564-65.39662137 22.09345316-82.18764579 28.86877882-16.49644503 65.39662137-6.77532564 82.18764579 22.09345318l26.21756444 46.24896197z m-231.8339686 642.18303877l-57.7375576 100.1569877c-16.49644503 28.86877882-53.31886698 38.58989821-82.18764579 22.09345316-28.86877882-16.49644503-38.58989821-53.31886698-22.09345317-82.18764578l43.00858884-74.23400265c48.3110176-15.02354815 87.78465392-3.5349525 119.01006772 34.17120757z m497.54456536-181.75547473h156.42164843c33.28746944 0 60.09419262 26.80672317 60.09419263 60.0941926 0 33.28746944-26.80672317 60.09419262-60.09419263 60.09419264h-86.90091577l58.62129572 101.62988457c16.49644503 28.86877882 6.77532564 65.39662137-22.09345316 82.18764578-28.86877882 16.49644503-65.39662137 6.77532564-82.1876458-22.09345316-98.68409082-171.15061723-172.91809347-299.2926456-222.11284918-384.72066451-50.37307323-86.90091581-14.4343894-174.09641097 21.20971505-203.55434854 39.47363634 67.75325639 98.38951143 169.9722997 177.04220471 306.36255062zM512-218.55685145z" p-id="4410"></path></svg>