<?xml version="1.0" standalone="no"?><!DOCTYPE svg PUBLIC "-//W3C//DTD SVG 1.1//EN" "http://www.w3.org/Graphics/SVG/1.1/DTD/svg11.dtd"><svg t="1583305291541" class="icon" viewBox="0 0 1024 1024" version="1.1" xmlns="http://www.w3.org/2000/svg" p-id="5451" xmlns:xlink="http://www.w3.org/1999/xlink" width="200" height="200"><defs><style type="text/css"></style></defs><path d="M142.222222 853.333333h768a28.444444 28.444444 0 0 1 0 56.888889H113.777778a28.444444 28.444444 0 0 1-28.444445-28.444444V142.222222a28.444444 28.444444 0 1 1 56.888889 0v711.111111z m106.040889-157.297777a28.444444 28.444444 0 1 1-41.415111-39.025778l216.263111-229.461334a28.444444 28.444444 0 0 1 41.984 0.625778l156.16 175.957334 264.448-282.254223a28.444444 28.444444 0 1 1 41.528889 38.912L641.422222 665.799111a28.444444 28.444444 0 0 1-42.040889-0.568889l-156.245333-176.042666-194.901333 206.848z" p-id="5452"></path></svg>