<?xml version="1.0" standalone="no"?><!DOCTYPE svg PUBLIC "-//W3C//DTD SVG 1.1//EN" "http://www.w3.org/Graphics/SVG/1.1/DTD/svg11.dtd"><svg t="1583139875959" class="icon" viewBox="0 0 1026 1024" version="1.1" xmlns="http://www.w3.org/2000/svg" p-id="4871" xmlns:xlink="http://www.w3.org/1999/xlink" width="200.390625" height="200"><defs><style type="text/css"></style></defs><path d="M1006.189637 919.685205L593.241409 509.650702 1006.189637 99.633238c23.258689-23.275729 23.258689-61.068969 0-81.430971-23.275729-23.275729-61.068969-23.275729-81.430971 0L511.827477 428.219731 101.775934 15.271502C78.517245-5.090501 40.724005-5.090501 17.448277 15.271502s-20.362003 61.068969 0 84.344697L430.396506 509.650702 17.448277 919.685205c-23.258689 23.258689-23.258689 61.068969 0 81.413932 23.275729 23.258689 61.068969 23.258689 81.430971 0l412.948229-410.034503L921.827901 1004.012863c23.275729 23.258689 61.068969 23.258689 81.430971 0 23.258689-23.258689 23.258689-61.068969 2.913726-84.327658z" p-id="4872"></path></svg>