<?xml version="1.0" standalone="no"?><!DOCTYPE svg PUBLIC "-//W3C//DTD SVG 1.1//EN" "http://www.w3.org/Graphics/SVG/1.1/DTD/svg11.dtd"><svg t="1583220759836" class="icon" viewBox="0 0 1024 1024" version="1.1" xmlns="http://www.w3.org/2000/svg" p-id="4379" xmlns:xlink="http://www.w3.org/1999/xlink" width="200" height="200"><defs><style type="text/css"></style></defs><path d="M451.28 782.79a337.91 337.91 0 0 0 60.26 5.63c170 0 307.19-131.76 307.19-293.58S681.5 201.26 511.54 201.26 204.33 333 204.33 494.84a281.1 281.1 0 0 0 23.1 111.9 293.51 293.51 0 0 0 66.38 95.2 309.91 309.91 0 0 0 96 62.75 302.87 302.87 0 0 0 61.47 18.1z m-76 49.68l-12.22 58.45-66.82-14 15.8-75.56c-3.27-1.94-6.16-3.7-8.63-5.31a374.51 374.51 0 0 1-56.9-44.88 361.83 361.83 0 0 1-81.79-117.37 349.69 349.69 0 0 1-28.68-139c0.03-200.12 168.44-361.8 375.5-361.8S887 294.68 887 494.84 718.59 856.69 511.54 856.69a392.27 392.27 0 0 1-73-6.83s-45.07-7.6-63.23-17.39z m-79 44.46" p-id="4380"></path><path d="M682.2 491.39h-85.33v-85.33h85.33z m-256 0h-85.33v-85.33h85.33z m0-85.33" p-id="4381"></path></svg>