<?xml version="1.0" encoding="UTF-8"?>
<svg width="13px" height="13px" viewBox="0 0 13 13" version="1.1" xmlns="http://www.w3.org/2000/svg" xmlns:xlink="http://www.w3.org/1999/xlink">
    <!-- Generator: Sketch 60.1 (88133) - https://sketch.com -->
    <title>编组备份 2@1.5x</title>
    <desc>Created with Sketch.</desc>
    <defs>
        <polygon id="path-1" points="0.0019378882 0.0145842236 12.7213042 0.0145842236 12.7213042 8.04080037 0.0019378882 8.04080037"></polygon>
    </defs>
    <g id="页面-1" stroke="none" stroke-width="1" fill="none" fill-rule="evenodd">
        <g id="3.19-应用详情页-苹果市场" transform="translate(-315.000000, -240.000000)">
            <g id="编组备份-2" transform="translate(315.000000, 240.000000)">
                <g id="编组" transform="translate(0.000000, 0.011627)">
                    <mask id="mask-2" fill="white">
                        <use xlink:href="#path-1"></use>
                    </mask>
                    <g id="Clip-2"></g>
                    <path d="M11.0914434,0.0145842236 L1.62986571,0.0145842236 C0.730620994,0.0145842236 4.8447205e-06,0.745200373 4.8447205e-06,1.64444509 L4.8447205e-06,6.41736683 C4.8447205e-06,7.3123159 0.730620994,8.04080037 1.62986571,8.04080037 L3.55160484,8.04080037 L3.55160484,6.9707954 L1.62986571,6.9707954 C1.32511665,6.9707954 1.07650174,6.72216435 1.07650174,6.41736683 L1.07650174,1.64444509 C1.07650174,1.33967988 1.32511665,1.09108112 1.62986571,1.09108112 L11.0914434,1.09108112 C11.396257,1.09108112 11.6448073,1.33967988 11.6448073,1.64444509 L11.6448073,6.41736683 C11.6448073,6.72216435 11.396257,6.9707954 11.0914434,6.9707954 L9.16970422,6.9707954 L9.16970422,8.04080037 L11.0914434,8.04080037 C11.9906881,8.04080037 12.7213042,7.31016807 12.7213042,6.4109395 L12.7213042,1.64444509 C12.7213042,0.745200373 11.9906881,0.0145842236 11.0914434,0.0145842236" id="Fill-1" fill="#307EFE" mask="url(#mask-2)"></path>
                </g>
                <path d="M8.62712944,9.45750807 L6.89351081,11.1911429 L6.89351081,4.79263975 C6.89351081,4.49653043 6.65353565,4.25657143 6.35742634,4.25657143 C6.06126857,4.25657143 5.82137416,4.49653043 5.82137416,4.79263975 L5.82137416,11.1479441 L4.13095429,9.45750807 C4.0336723,9.36024224 3.8974872,9.30617516 3.75263006,9.30617516 C3.60780522,9.30617516 3.47162012,9.36239006 3.37433814,9.45750807 C3.27277665,9.55906957 3.21870957,9.69312298 3.21870957,9.8358323 C3.21870957,9.97846087 3.27490832,10.1124981 3.37433814,10.2140596 L5.99856174,12.8383478 C6.10018783,12.9399093 6.23422509,12.9961081 6.37685366,12.9961081 C6.52820273,12.9961081 6.66438783,12.9399093 6.75301391,12.8404957 L9.37938534,10.2140596 C9.58693317,10.0065764 9.58693317,9.66720373 9.37938534,9.45750807 C9.28433193,9.35804596 9.14813068,9.30189565 9.00545366,9.30189565 C8.8627605,9.30189565 8.72875553,9.35804596 8.62712944,9.45750807 Z" id="Fill-3" fill="#307EFE"></path>
            </g>
        </g>
    </g>
</svg>