<?xml version="1.0" encoding="UTF-8"?>
<svg width="23px" height="25px" viewBox="0 0 23 25" version="1.1" xmlns="http://www.w3.org/2000/svg" xmlns:xlink="http://www.w3.org/1999/xlink">
    <!-- Generator: Sketch 60.1 (88133) - https://sketch.com -->
    <title>编组@1.5x</title>
    <desc>Created with Sketch.</desc>
    <defs>
        <polygon id="path-1" points="0 0.865609349 23 0.865609349 23 24.8656093 0 24.8656093"></polygon>
        <linearGradient x1="23.288642%" y1="0%" x2="74.3326823%" y2="100%" id="linearGradient-3">
            <stop stop-color="#FF6E6E" offset="0%"></stop>
            <stop stop-color="#FF3B3B" offset="100%"></stop>
        </linearGradient>
    </defs>
    <g id="页面-1" stroke="none" stroke-width="1" fill="none" fill-rule="evenodd">
        <g id="首页-登录状态" transform="translate(-42.000000, -225.000000)">
            <g id="编组" transform="translate(42.000000, 225.000000)">
                <mask id="mask-2" fill="white">
                    <use xlink:href="#path-1"></use>
                </mask>
                <g id="Clip-2"></g>
                <path d="M17.321044,16.5150517 C16.3536339,16.5150517 15.5666328,15.7106686 15.5666328,14.7220159 C15.5666328,13.7324673 16.3536339,12.9273052 17.321044,12.9273052 C18.2884925,12.9273052 19.0754936,13.7324673 19.0754936,14.7220159 C19.0754936,15.7106686 18.2884925,16.5150517 17.321044,16.5150517 M11.7260995,16.5150517 C10.7586894,16.5150517 9.97164982,15.7106686 9.97164982,14.7220159 C9.97164982,13.7324673 10.7586894,12.9273052 11.7260995,12.9273052 C12.6933557,12.9273052 13.4802415,13.7324673 13.4802415,14.7220159 C13.4800877,15.7106686 12.6933557,16.5150517 11.7260995,16.5150517 M6.13127031,16.5150517 C5.16355265,16.5150517 4.37620545,15.7106686 4.37620545,14.7220159 C4.37620545,13.7324673 5.16355265,12.9273052 6.13127031,12.9273052 C7.09852656,12.9273052 7.88556616,13.7324673 7.88556616,14.7220159 C7.88556616,15.7106686 7.09852656,16.5150517 6.13127031,16.5150517 M22.4571993,9.74077651 C21.6677373,7.24723562 20.0297152,5.06349829 17.7225422,3.4271559 C17.6142277,3.3487897 17.4846117,3.30649064 17.3516889,3.30649064 C17.1607831,3.30649064 16.979682,3.39229618 16.8575638,3.54096606 C16.7374066,3.68640314 16.6876903,3.8784237 16.7213343,4.06767886 C16.7399443,4.17284225 16.7585927,4.26912518 16.7765875,4.36225321 C16.8476436,4.73028613 16.8990133,4.99623267 16.8727133,5.38116964 C16.8694065,5.4290774 16.8300719,5.49163015 16.7872766,5.53817469 C14.9511201,1.68113199 11.2631961,0.865920944 8.47643222,0.865609349 C7.37052412,0.865609349 6.21809113,0.988728417 5.05089321,1.23153901 C4.8212679,1.27929098 4.63486075,1.41487385 4.53961931,1.60338897 C4.45341369,1.77379262 4.45072217,1.96853964 4.53181389,2.1515629 C6.1671829,5.84248639 5.43901074,7.64175414 4.60033236,8.7924364 C4.55346142,8.77845356 4.4848276,8.74756669 4.45460565,8.7338565 C4.15211698,8.59768938 3.73039387,7.84577112 3.51964767,6.51619424 C3.46920085,6.20000297 3.20331689,5.97059098 2.88748596,5.97059098 C2.69642632,5.97059098 2.51559446,6.05686391 2.39166908,6.20732546 C1.07024693,7.8076007 0.261752054,9.82397244 0.0535820211,12.0381682 C-0.14843596,14.1864616 0.223147932,16.3591373 1.12838382,18.3213304 C2.01347173,20.2404844 3.37607417,21.8494453 5.06846501,22.9747326 C6.95583742,24.2293319 9.18161109,24.8656093 11.6835734,24.8656093 C14.2512089,24.8656093 16.6376665,24.0517615 18.5849829,22.5126758 C19.4926027,21.7951109 20.2881783,20.9346017 20.94937,19.9549074 C21.5985267,18.9932076 22.1042253,17.9379514 22.452816,16.818156 C23.1808343,14.4785821 23.1824877,12.0313131 22.4571993,9.74077651" id="Fill-1" fill="url(#linearGradient-3)" mask="url(#mask-2)"></path>
            </g>
        </g>
    </g>
</svg>