<?xml version="1.0" encoding="UTF-8"?>
<svg width="25px" height="29px" viewBox="0 0 25 29" version="1.1" xmlns="http://www.w3.org/2000/svg" xmlns:xlink="http://www.w3.org/1999/xlink">
    <!-- Generator: Sketch 60.1 (88133) - https://sketch.com -->
    <title>编组@1.5x</title>
    <desc>Created with Sketch.</desc>
    <defs>
        <linearGradient x1="50%" y1="0.607052365%" x2="50%" y2="100%" id="linearGradient-1">
            <stop stop-color="#8ADD8F" offset="0%"></stop>
            <stop stop-color="#44C2AC" offset="100%"></stop>
        </linearGradient>
    </defs>
    <g id="页面-1" stroke="none" stroke-width="1" fill="none" fill-rule="evenodd">
        <g id="首页-登录状态" transform="translate(-306.000000, -134.000000)" fill="url(#linearGradient-1)">
            <g id="编组" transform="translate(306.000000, 133.000000)">
                <path d="M6.618125,11.7319318 C6.73005682,11.7001136 6.84994318,11.7148864 6.949375,11.7751136 L6.949375,11.7751136 L19.5033523,19.3842045 C20.086875,20.0711364 19.168125,21.78875 18.6033523,22.8393182 C17.2959659,25.4370455 16.0897159,27.8842045 12.9573295,29.1438636 C12.2936932,29.4114773 11.5652841,29.4728409 10.8613068,29.345 C10.1186932,29.2097727 9.31585227,29.0143182 8.480625,28.0876136 C8.18914773,27.7626136 8.19198864,27.2660227 8.50278409,26.9603409 C9.680625,25.8035227 10.4965341,24.8688636 11.5425568,23.7807955 C10.0721023,24.5421591 8.31982955,25.4523864 6.755625,25.6819318 C5.99369318,25.7944318 5.22721591,25.5126136 4.69880682,24.9523864 C1.68119318,21.7518182 -0.337556818,17.2234091 0.156761364,12.6353409 C0.181761364,12.4069318 0.381761364,12.2376136 0.611875,12.2427273 C2.62267045,12.2904545 4.66471591,12.2893182 6.618125,11.7319318 Z M22.6238636,1.00008143 C24.0920455,1.01204545 25.5772727,2.48647727 24.6079545,3.95409091 C23.0051136,5.98306818 21.5619318,7.73647727 19.9448864,9.75693182 C19.2943182,10.4552273 20.5647727,10.4654545 21.4295455,11.7876136 C22.4573864,13.4461364 21.7278409,15.3177273 21.1795455,17.0245455 L21.1795455,17.0245455 L9.32443182,10.8313636 C9.11022727,10.72 9.03238636,10.4393182 9.17840909,10.2461364 C9.27897727,10.1126136 9.40113636,9.99215909 9.49659091,9.89045455 C9.74488636,9.62625 10.0130682,9.38420455 10.29375,9.15465909 C10.7789773,8.75863636 11.2198864,8.29840909 11.83125,8.11090909 C12.2085227,7.99556818 12.6068182,7.96829545 12.9988636,7.99102273 C13.4988636,8.02 13.9909091,8.12568182 14.4784091,8.23477273 C14.7147727,8.28704545 14.9505682,8.34159091 15.1880682,8.38875 C15.3011364,8.41090909 15.4142045,8.43136364 15.5284091,8.44840909 C15.5664773,8.45409091 15.8210227,8.51318182 15.8426136,8.48647727 C15.84375,8.48477273 20.2744318,2.98590909 20.2744318,2.98590909 C20.9778409,2.2575 21.7238636,0.992727273 22.6238636,1.00008143 Z" id="形状结合"></path>
            </g>
        </g>
    </g>
</svg>