<?xml version="1.0" encoding="UTF-8"?>
<svg width="25px" height="24px" viewBox="0 0 25 24" version="1.1" xmlns="http://www.w3.org/2000/svg" xmlns:xlink="http://www.w3.org/1999/xlink">
    <!-- Generator: Sketch 60.1 (88133) - https://sketch.com -->
    <title>编组@1.5x</title>
    <desc>Created with Sketch.</desc>
    <defs>
        <polygon id="path-1" points="0 0 24.9973852 0 24.9973852 23.4482324 0 23.4482324"></polygon>
        <linearGradient x1="20.9318888%" y1="16.1560535%" x2="77.8909627%" y2="74.2318847%" id="linearGradient-3">
            <stop stop-color="#FFB37A" offset="0%"></stop>
            <stop stop-color="#FF9758" offset="100%"></stop>
        </linearGradient>
    </defs>
    <g id="页面-1" stroke="none" stroke-width="1" fill="none" fill-rule="evenodd">
        <g id="首页-登录状态" transform="translate(-126.000000, -225.000000)">
            <g id="编组" transform="translate(126.000000, 225.000000)">
                <mask id="mask-2" fill="white">
                    <use xlink:href="#path-1"></use>
                </mask>
                <g id="Clip-2"></g>
                <path d="M19.5236743,10.0628183 L14.0175865,16.3916502 C13.6378276,16.8346663 13.0683282,17.0877874 12.4986743,17.0877874 C11.9290513,17.0877874 11.3595519,16.8346663 10.979793,16.3916502 L5.41044808,10.0628183 C4.96743201,9.55642151 5.03072002,8.73377009 5.5369932,8.29075402 C6.04332818,7.84773795 6.86601051,7.91099506 7.30902658,8.41726823 L12.4986743,14.3663412 L17.6250031,8.48064895 C18.0680192,7.97425216 18.8907942,7.91099506 19.3970365,8.35401112 C19.9666904,8.73377009 20.0299475,9.4931644 19.5236743,10.0628183 M24.7765791,8.35401112 L20.9159796,1.01266378 C20.5995705,0.379752781 19.9666904,-6.18046972e-06 19.2705532,-6.18046972e-06 L5.79011434,-6.18046972e-06 C5.09397713,-6.18046972e-06 4.46106613,0.379752781 4.14465698,1.01266378 L0.220800371,8.35401112 C-0.158958591,9.05014833 -0.0323516687,9.87292336 0.47395241,10.5058344 L11.1063999,22.7837083 C11.8657942,23.6697404 13.1948115,23.6697404 13.9543294,22.7837083 L24.523458,10.5058344 C25.0297311,9.87292336 25.1563381,9.05014833 24.7765791,8.35401112" id="Fill-1" fill="url(#linearGradient-3)" mask="url(#mask-2)"></path>
            </g>
        </g>
    </g>
</svg>