<?xml version="1.0" encoding="UTF-8"?>
<svg width="28px" height="25px" viewBox="0 0 28 25" version="1.1" xmlns="http://www.w3.org/2000/svg" xmlns:xlink="http://www.w3.org/1999/xlink">
    <!-- Generator: Sketch 60.1 (88133) - https://sketch.com -->
    <title>编组@1.5x</title>
    <desc>Created with Sketch.</desc>
    <defs>
        <polygon id="path-1" points="0 0 27.5 0 27.5 25 0 25"></polygon>
        <linearGradient x1="90.2698864%" y1="81.2951963%" x2="20.5681818%" y2="17.7944215%" id="linearGradient-3">
            <stop stop-color="#8978E7" offset="0%"></stop>
            <stop stop-color="#FFA7D8" offset="100%"></stop>
        </linearGradient>
    </defs>
    <g id="页面-1" stroke="none" stroke-width="1" fill="none" fill-rule="evenodd">
        <g id="首页-登录状态" transform="translate(-39.000000, -137.000000)">
            <g id="编组" transform="translate(39.000000, 137.000000)">
                <mask id="mask-2" fill="white">
                    <use xlink:href="#path-1"></use>
                </mask>
                <g id="Clip-2"></g>
                <path d="M21.4697109,18.0903688 C20.8618193,18.4301685 20.1130805,18.4301685 19.5053807,18.0903688 C18.8976808,17.7507548 18.5232395,17.1231467 18.5232395,16.4436867 C18.5232395,15.7644587 18.8976808,15.1368506 19.5053807,14.7972366 C20.1130805,14.4573905 20.8618193,14.4573905 21.4697109,14.7972366 C22.0774108,15.1368506 22.4519,15.7644587 22.4519,16.4436867 C22.4519,17.1231467 22.0774108,17.7507548 21.4697109,18.0903688 M9.95894957,17.3944758 L8.97676047,17.3944758 L8.97676047,18.3451257 C8.97676047,18.9789078 8.64950797,19.2959149 7.99461932,19.2959149 C7.3399225,19.2959149 7.01243022,18.9789078 7.01243022,18.3451257 L7.01243022,17.3944758 L6.0304809,17.3944758 C5.37559226,17.3944758 5.0482918,17.0776544 5.0482918,16.4436867 C5.0482918,15.809951 5.37559226,15.4932224 6.0304809,15.4932224 L7.01243022,15.4932224 L7.01243022,14.5424333 C7.01243022,13.9085119 7.3399225,13.5917834 7.99461932,13.5917834 C8.64950797,13.5917834 8.97676047,13.9085119 8.97676047,14.5424333 L8.97676047,15.4932224 L9.95894957,15.4932224 C10.6136464,15.4932224 10.9410907,15.809951 10.9410907,16.4436867 C10.9410907,17.0776544 10.6136464,17.3944758 9.95894957,17.3944758 M18.6607297,7.88760541 L14.7369128,7.88760541 C14.7369128,7.85594648 14.7353782,7.82419471 14.7320692,7.79239652 L14.7320692,5.89114313 C14.7414207,5.04721446 15.0943776,4.24084015 15.7142583,3.64735126 L17.6785886,1.74609787 C18.0155761,1.53233046 18.1836144,1.1410038 18.1022808,0.75910054 C18.021187,0.377290126 17.7072184,0.0820543535 17.3104775,0.0143729452 C16.9136886,-0.0530763595 16.5145019,0.120815654 16.303591,0.45304874 L14.3392607,2.35448781 C13.3368341,3.31409691 12.7711438,4.62130436 12.7679308,5.98616634 L12.7679308,7.88760541 L8.8392703,7.88760541 C2.94647139,7.88760541 0,10.7395551 0,16.4436867 C0,22.1480039 2.94647139,25 8.8392703,25 L18.6607297,25 C24.5535286,25 27.5,22.1480039 27.5,16.4436867 C27.5,10.7395551 24.5535286,7.88760541 18.6607297,7.88760541" id="Fill-1" fill="url(#linearGradient-3)" mask="url(#mask-2)"></path>
            </g>
        </g>
    </g>
</svg>