<?xml version="1.0" encoding="UTF-8"?>
<svg width="25px" height="25px" viewBox="0 0 25 25" version="1.1" xmlns="http://www.w3.org/2000/svg" xmlns:xlink="http://www.w3.org/1999/xlink">
    <!-- Generator: Sketch 60.1 (88133) - https://sketch.com -->
    <title>编组@1.5x</title>
    <desc>Created with Sketch.</desc>
    <defs>
        <linearGradient x1="20.6143944%" y1="20.7069319%" x2="99.7937616%" y2="100%" id="linearGradient-1">
            <stop stop-color="#7182EE" offset="0%"></stop>
            <stop stop-color="#3D8FF2" offset="100%"></stop>
        </linearGradient>
    </defs>
    <g id="页面-1" stroke="none" stroke-width="1" fill="none" fill-rule="evenodd">
        <g id="首页-登录状态" transform="translate(-306.000000, -223.000000)" fill="url(#linearGradient-1)">
            <g id="编组" transform="translate(305.000000, 223.000000)">
                <path d="M3.98666991,13.3450843 C5.08738327,13.3450843 5.97882296,14.2381777 5.97882296,15.3372049 L5.97882296,15.3372049 L5.97882296,22.9740402 C5.97882296,24.0746887 5.08738327,24.9662581 3.98666991,24.9662581 L3.98666991,24.9662581 L2.99224708,24.9662581 C1.89156615,24.9662581 0.999996757,24.0746887 0.999996757,22.9740402 L0.999996757,22.9740402 L0.999996757,15.3372049 C0.999996757,14.2364916 1.89156615,13.3450843 2.99224708,13.3450843 L2.99224708,13.3450843 Z M23.8739818,6.70431907 C24.9730415,6.70431907 25.8662322,7.59741245 25.8662322,8.69643969 L25.8662322,8.69643969 L25.8662322,22.9740337 C25.8662322,24.0747147 24.9746628,24.966284 23.8739818,24.966284 L23.8739818,24.966284 L22.8779053,24.966284 C21.7772244,24.966284 20.885655,24.0747147 20.885655,22.9740337 L20.885655,22.9740337 L20.885655,8.69643969 C20.885655,7.59575875 21.7772244,6.70431907 22.8779053,6.70431907 L22.8779053,6.70431907 Z M13.9477497,0.0486057069 C15.0484306,0.0486057069 15.94,0.940175097 15.94,2.04088846 L15.94,2.04088846 L15.94,22.9590791 C15.94,24.0597601 15.0484306,24.9513294 13.9477497,24.9513294 L13.9477497,24.9513294 L12.9516732,24.9513294 C11.8509922,24.9513294 10.9593904,24.0597601 10.9593904,22.9590791 L10.9593904,22.9590791 L10.9593904,2.04088846 C10.9593904,0.940175097 11.8509922,0.0486057069 12.9516732,0.0486057069 L12.9516732,0.0486057069 Z" id="形状结合"></path>
            </g>
        </g>
    </g>
</svg>