<?xml version="1.0" encoding="UTF-8"?>
<svg width="25px" height="24px" viewBox="0 0 25 24" version="1.1" xmlns="http://www.w3.org/2000/svg" xmlns:xlink="http://www.w3.org/1999/xlink">
    <!-- Generator: Sketch 60.1 (88133) - https://sketch.com -->
    <title>编组@1.5x</title>
    <desc>Created with Sketch.</desc>
    <defs>
        <polygon id="path-1" points="0 2.65392781e-05 24.9599533 2.65392781e-05 24.9599533 23.5740977 0 23.5740977"></polygon>
        <linearGradient x1="89.4088502%" y1="94.601709%" x2="0%" y2="5.39829104%" id="linearGradient-3">
            <stop stop-color="#F75B8D" offset="0%"></stop>
            <stop stop-color="#FFA29E" offset="100%"></stop>
        </linearGradient>
    </defs>
    <g id="页面-1" stroke="none" stroke-width="1" fill="none" fill-rule="evenodd">
        <g id="首页-登录状态" transform="translate(-129.000000, -137.000000)">
            <g id="编组" transform="translate(129.000000, 137.000000)">
                <mask id="mask-2" fill="white">
                    <use xlink:href="#path-1"></use>
                </mask>
                <g id="Clip-2"></g>
                <path d="M10.6601486,14.3295913 C10.6601486,14.966534 11.2035669,15.4840499 11.873259,15.4840499 L13.0864225,15.4840499 C13.4007537,15.4921178 13.7053185,15.3749735 13.9331847,15.1585191 C14.1612633,14.9420648 14.2937473,14.6437102 14.301603,14.3295913 C14.2850425,13.6746019 13.7411996,13.157086 13.0864225,13.1728503 L11.873259,13.1728503 C11.5589809,13.1653132 11.2545754,13.2829352 11.0269214,13.4998142 C10.7994798,13.7166932 10.6674204,14.0152601 10.6601486,14.3295913 M2.77463907,22.417224 C2.77463907,21.780069 3.3181104,21.2627654 3.98780255,21.2627654 L20.973949,21.2627654 C21.4087686,21.2627654 21.8089278,21.4822983 22.0242144,21.8410032 C22.2414119,22.1953025 22.2414119,22.6411093 22.0242144,22.9954618 C21.7986306,23.3578822 21.4008599,23.5768312 20.973949,23.5737527 L3.98780255,23.5737527 C3.67347134,23.581396 3.3691189,23.4636677 3.14167728,23.2467887 C2.91397028,23.0299098 2.78212314,22.7313429 2.77463907,22.417224 M12.4797346,2.65392781e-05 C12.8318047,2.65392781e-05 13.165828,0.155122081 13.392845,0.424018047 L18.6542569,6.67237261 L23.1112102,3.72651274 C23.5157219,3.46005839 24.0407219,3.46361465 24.4417304,3.73521762 C24.8404034,4.0031051 25.0353079,4.48744692 24.9330786,4.95703291 L21.961104,18.4862792 C21.8396072,19.0294851 21.3565924,19.4147293 20.8000106,19.412457 L4.1594586,19.412457 C3.60298301,19.4147293 3.12007431,19.0294851 2.99857749,18.4862792 L0.0266029724,4.95703291 C-0.0752016985,4.48702229 0.120552017,4.00268047 0.52007431,3.73521762 C0.920021231,3.4654724 1.44273885,3.46191614 1.84618896,3.72651274 L6.30977707,6.67444268 L11.5709766,0.42608811 C11.7967728,0.157616773 12.1291507,0.00188428875 12.4797346,2.65392781e-05" id="Fill-1" fill="url(#linearGradient-3)" mask="url(#mask-2)"></path>
            </g>
        </g>
    </g>
</svg>