<?xml version="1.0" encoding="UTF-8"?>
<svg width="25px" height="25px" viewBox="0 0 25 25" version="1.1" xmlns="http://www.w3.org/2000/svg" xmlns:xlink="http://www.w3.org/1999/xlink">
    <!-- Generator: Sketch 60.1 (88133) - https://sketch.com -->
    <title>编组@1.5x</title>
    <desc>Created with Sketch.</desc>
    <defs>
        <polygon id="path-1" points="4.69043152e-06 3.28330206e-05 24.9756567 3.28330206e-05 24.9756567 24.9757036 4.69043152e-06 24.9757036"></polygon>
        <linearGradient x1="25.4612576%" y1="20.7222965%" x2="79.2638475%" y2="84.3287518%" id="linearGradient-3">
            <stop stop-color="#FF8A6B" offset="0%"></stop>
            <stop stop-color="#FC797D" offset="99.9129012%"></stop>
        </linearGradient>
    </defs>
    <g id="页面-1" stroke="none" stroke-width="1" fill="none" fill-rule="evenodd">
        <g id="首页-登录状态" transform="translate(-219.000000, -225.000000)">
            <g id="编组" transform="translate(219.000000, 225.000000)">
                <mask id="mask-2" fill="white">
                    <use xlink:href="#path-1"></use>
                </mask>
                <g id="Clip-2"></g>
                <path d="M16.6455488,16.7263931 C16.497894,17.0537383 16.1799765,17.2716557 15.8210647,17.2908865 C15.5403893,17.2908865 15.2735976,17.1681379 15.0911398,16.9546764 L11.7962523,13.1121341 C11.6334006,12.9437477 11.5377627,12.7219371 11.527303,12.4879784 L11.527303,5.61959193 C11.527303,5.08896341 11.9573218,4.65894465 12.4879503,4.65894465 C13.0183443,4.65894465 13.448363,5.08896341 13.448363,5.61959193 L13.448363,12.1324906 L16.522425,15.734742 C16.7455957,16.0161679 16.7932505,16.3987664 16.6455488,16.7263931 M12.4879503,3.28330206e-05 C5.59099906,3.28330206e-05 4.69043152e-06,5.5910272 4.69043152e-06,12.4879784 C4.69043152e-06,16.9493762 2.38021107,21.0719371 6.24395403,23.3027064 C10.107697,25.5333818 14.867969,25.5333818 18.731712,23.3027064 C22.595455,21.0719371 24.9756614,16.9493762 24.9756614,12.4879784 C24.9756614,5.5910272 19.3847139,3.28330206e-05 12.4879503,3.28330206e-05" id="Fill-1" fill="url(#linearGradient-3)" mask="url(#mask-2)"></path>
            </g>
        </g>
    </g>
</svg>