<?xml version="1.0" encoding="UTF-8"?>
<svg width="33px" height="25px" viewBox="0 0 33 25" version="1.1" xmlns="http://www.w3.org/2000/svg" xmlns:xlink="http://www.w3.org/1999/xlink">
    <!-- Generator: Sketch 60.1 (88133) - https://sketch.com -->
    <title>编组@1.5x</title>
    <desc>Created with Sketch.</desc>
    <defs>
        <polygon id="path-1" points="1.06148937e-05 1.31608729e-05 32.7420479 1.31608729e-05 32.7420479 24.9541939 1.06148937e-05 24.9541939"></polygon>
        <linearGradient x1="16.2014157%" y1="20.956756%" x2="87.3839931%" y2="71.5801882%" id="linearGradient-3">
            <stop stop-color="#B09BFF" offset="0%"></stop>
            <stop stop-color="#7AD2FF" offset="100%"></stop>
        </linearGradient>
    </defs>
    <g id="页面-1" stroke="none" stroke-width="1" fill="none" fill-rule="evenodd">
        <g id="首页-登录状态" transform="translate(-215.000000, -137.000000)">
            <g id="编组" transform="translate(215.000000, 137.000000)">
                <mask id="mask-2" fill="white">
                    <use xlink:href="#path-1"></use>
                </mask>
                <g id="Clip-2"></g>
                <path d="M10.7710784,18.4559532 C10.6928105,18.9133061 10.2832244,19.2924455 9.86051198,19.2924455 L7.86928105,19.2924455 C7.45522876,19.2924455 7.0414488,18.9176089 6.95844227,18.4559532 L5.37254902,9.47114924 C5.29406318,9.0134695 4.88001089,8.63454793 4.45746187,8.63454793 L0.736328976,8.63454793 C-0.0653594771,8.63454793 -0.235348584,8.19435185 0.339760349,7.65415577 L8.19607843,0.220604575 C8.53159041,-0.0712799564 9.08050109,-0.0757461874 9.4204793,0.220604575 L17.2853486,7.65415577 C17.8561547,8.19435185 17.6819172,8.63454793 16.8844771,8.63454793 L13.2548475,8.63454793 C12.853976,8.63454793 12.4357298,9.00922113 12.3529412,9.47114924 L10.7710784,18.4559532 Z M27.6165033,15.3273039 C27.7211329,15.911073 28.2351852,16.3862364 28.7449346,16.3862364 L32.0041939,16.3862364 C32.7973856,16.3862364 32.9760893,16.8306808 32.4181917,17.3708769 L24.8453159,24.6910294 C24.4357298,25.0484913 23.7646514,25.0353105 23.3681373,24.6910294 L15.7864379,17.3708769 C15.2243464,16.8262146 15.3985839,16.3862364 16.1873094,16.3862364 L19.5946078,16.3862364 C20.1088235,16.3862364 20.60561,15.9285566 20.7100763,15.3273039 L22.2221678,6.79146514 C22.326634,6.20742375 22.8409041,5.73246832 23.3332244,5.73246832 L25.0021242,5.73246832 C25.5118736,5.72806645 26.0086601,6.18569172 26.1133442,6.79146514 L27.6165033,15.3273039 Z" id="Fill-1" fill="url(#linearGradient-3)" mask="url(#mask-2)"></path>
            </g>
        </g>
    </g>
</svg>