<?xml version="1.0" encoding="UTF-8"?>
<svg width="23px" height="27px" viewBox="0 0 23 27" version="1.1" xmlns="http://www.w3.org/2000/svg" xmlns:xlink="http://www.w3.org/1999/xlink">
    <!-- Generator: Sketch 60.1 (88133) - https://sketch.com -->
    <title>编组备份@1.5x</title>
    <desc>Created with Sketch.</desc>
    <defs>
        <linearGradient x1="50%" y1="0.607052365%" x2="50%" y2="100%" id="linearGradient-1">
            <stop stop-color="#8ADD8F" offset="0%"></stop>
            <stop stop-color="#44C2AC" offset="100%"></stop>
        </linearGradient>
    </defs>
    <g id="页面-1" stroke="none" stroke-width="1" fill="none" fill-rule="evenodd">
        <g id="3.16侧导航" transform="translate(-234.000000, -106.000000)" fill="url(#linearGradient-1)">
            <g id="编组备份" transform="translate(234.000000, 106.000000)">
                <path d="M5.97766129,10.5965836 C6.078761,10.5678446 6.18704545,10.5811877 6.27685484,10.6355865 L6.27685484,10.6355865 L17.6159311,17.5083138 C18.1429839,18.1287683 17.3131452,19.6801613 16.8030279,20.6290616 C15.6221628,22.9753959 14.5326466,25.1857331 11.7033944,26.3234897 C11.1039809,26.5652053 10.446063,26.6206305 9.81021261,26.5051613 C9.13946481,26.3830205 8.41431818,26.2064809 7.65991935,25.3694575 C7.39664956,25.0759091 7.39921554,24.6273754 7.67993402,24.3512757 C8.74379032,23.3064076 9.48074047,22.4621994 10.4255352,21.4794282 C9.0973827,22.1671114 7.51468475,22.9892522 6.10185484,23.1965836 C5.41365836,23.2981965 4.7213563,23.043651 4.24408358,22.5376393 C1.51849707,19.6468035 -0.304890029,15.5566276 0.141590909,11.412566 C0.164171554,11.206261 0.344816716,11.0533284 0.55266129,11.0579472 C2.36886364,11.1010557 4.21329179,11.1000293 5.97766129,10.5965836 Z M20.4344575,0.903299354 C21.7605572,0.914105572 23.1020528,2.24585044 22.2265396,3.57143695 C20.7788123,5.40406158 19.4752933,6.98778592 18.0147361,8.81271261 C17.4271261,9.44343109 18.5746334,9.45266862 19.3557185,10.6468768 C20.2840909,12.1448974 19.6251466,13.8353666 19.129912,15.3770088 L19.129912,15.3770088 L8.42206745,9.78316716 C8.22859238,9.68258065 8.15828446,9.42906158 8.29017595,9.25457478 C8.38101173,9.13397361 8.49134897,9.02517595 8.57756598,8.93331378 C8.80183284,8.69467742 9.04406158,8.47605572 9.29758065,8.26872434 C9.73585044,7.91102639 10.1340909,7.49533724 10.6862903,7.3259824 C11.0270528,7.22180352 11.3868035,7.19717009 11.7409091,7.21769795 C12.192522,7.24387097 12.6369501,7.33932551 13.0772727,7.43785924 C13.2907625,7.48507331 13.503739,7.53434018 13.7182551,7.57693548 C13.8203812,7.59695015 13.9225073,7.61542522 14.0256598,7.63082111 C14.060044,7.63595308 14.289956,7.68932551 14.3094575,7.66520528 C14.3104839,7.66366569 18.31239,2.69695015 18.31239,2.69695015 C18.9477273,2.03903226 19.6215543,0.896656891 20.4344575,0.903299354 Z" id="形状结合"></path>
            </g>
        </g>
    </g>
</svg>