<?xml version="1.0" encoding="UTF-8"?>
<svg width="27px" height="27px" viewBox="0 0 27 27" version="1.1" xmlns="http://www.w3.org/2000/svg" xmlns:xlink="http://www.w3.org/1999/xlink">
    <!-- Generator: Sketch 60.1 (88133) - https://sketch.com -->
    <title>编组@1.5x</title>
    <desc>Created with Sketch.</desc>
    <defs>
        <linearGradient x1="50%" y1="0.607052365%" x2="50%" y2="100%" id="linearGradient-1">
            <stop stop-color="#8ADD8F" offset="0%"></stop>
            <stop stop-color="#44C2AC" offset="100%"></stop>
        </linearGradient>
    </defs>
    <g id="页面-1" stroke="none" stroke-width="1" fill="none" fill-rule="evenodd">
        <g id="3.16侧导航" transform="translate(-302.000000, -355.000000)" fill="url(#linearGradient-1)">
            <g id="编组" transform="translate(302.000000, 355.000000)">
                <path d="M8,0 L19,0 C23.418278,-8.11624501e-16 27,3.581722 27,8 L27,19 C27,23.418278 23.418278,27 19,27 L8,27 C3.581722,27 5.41083001e-16,23.418278 0,19 L0,8 C-5.41083001e-16,3.581722 3.581722,8.11624501e-16 8,0 Z M13.8984029,2.00677475 C16.8859099,2.10968587 19.6786156,3.36265676 21.7618957,5.53511616 C23.8500216,7.71274907 25,10.5819559 25,13.6140588 C25,16.2487793 24.1024188,18.8291079 22.4722905,20.87964 C20.8669451,22.8989911 18.6155848,24.3347131 16.1328721,24.9221175 C15.9124573,24.9742722 15.687612,25 15.4640128,25 C14.933605,25 14.409289,24.8555609 13.9615368,24.5780085 C13.2101604,24.1125314 12.7963288,23.4280885 12.7963288,22.6509418 L12.7963288,17.9901585 L11.6585341,17.9901585 C11.383431,17.9901585 11.1584472,17.7628032 11.1584472,17.485111 L10.4545597,12.7226751 C10.4545597,12.444843 10.6796819,12.2174877 10.954785,12.2174877 L16.0452323,12.2174877 C16.3203354,12.2174877 16.5454576,12.444843 16.5454576,12.7226751 L15.7411927,17.485111 C15.7411927,17.7628032 15.5160705,17.9901585 15.2409674,17.9901585 L14.203827,17.9901585 L14.203827,22.6509418 C14.203827,22.7629415 14.203827,23.0604889 14.6976836,23.3664257 C15.0205525,23.566655 15.426354,23.6292966 15.811803,23.5381307 C17.9897839,23.0227362 19.9653487,21.7626342 21.3746468,19.9896545 C22.8256188,18.1645202 23.5925018,15.9597612 23.5925018,13.6140588 C23.5925018,10.9530512 22.5831902,8.43508448 20.7507842,6.52409764 C18.9223934,4.61730554 16.4718014,3.51772257 13.8504987,3.42753551 C11.1223114,3.33315371 8.51845356,4.34968069 6.52198257,6.28849269 C4.52772681,8.22492767 3.42177603,10.8073537 3.40779242,13.5600864 C3.39616249,15.8179788 4.1004654,17.9603758 5.44469126,19.7554478 C6.74558179,21.492912 8.59515571,22.7855931 10.6526838,23.3953695 C11.0255338,23.505971 11.2391645,23.9008365 11.1297878,24.2776646 C11.0202726,24.6540732 10.629424,24.8699628 10.2562971,24.7593614 C7.91120517,24.0642918 5.80369606,22.5917958 4.32198784,20.6128541 C2.78988327,18.5666566 1.98714132,16.1254537 2,13.5528155 C2.01621614,10.412628 3.27557121,7.46889446 5.54631468,5.26385586 C7.81968872,3.05644024 10.786428,1.90008835 13.8984029,2.00677475 Z M12.1640597,6 C12.3692308,6 12.5370025,6.15801833 12.5370025,6.35126188 L12.5370025,9.84959258 L14.4631477,9.84959258 L14.4631477,6.35126188 C14.4631477,6.15801833 14.6309194,6 14.8359403,6 L15.4056432,6 C15.6108143,6 15.778586,6.15801833 15.778586,6.35126188 L15.778586,9.84959258 L16.389293,9.84959258 C16.725287,9.84959258 17,10.1084767 17,10.4247963 C17,10.7412574 16.725287,11 16.389293,11 L10.6108572,11 C10.2748632,11 10,10.7412574 10,10.4247963 C10,10.1084767 10.2748632,9.84959258 10.6108572,9.84959258 L11.221414,9.84959258 L11.221414,6.35126188 C11.221414,6.15801833 11.3893359,6 11.5943568,6 L12.1640597,6 Z" id="Fill-1"></path>
            </g>
        </g>
    </g>
</svg>