<?xml version="1.0" encoding="UTF-8"?>
<svg width="27px" height="27px" viewBox="0 0 27 27" version="1.1" xmlns="http://www.w3.org/2000/svg" xmlns:xlink="http://www.w3.org/1999/xlink">
    <!-- Generator: Sketch 60.1 (88133) - https://sketch.com -->
    <title>Fill 1备份@1.5x</title>
    <desc>Created with Sketch.</desc>
    <defs>
        <linearGradient x1="25.4612576%" y1="20.7242646%" x2="79.2638475%" y2="84.3264441%" id="linearGradient-1">
            <stop stop-color="#FF8A6B" offset="0%"></stop>
            <stop stop-color="#FC797D" offset="99.9129012%"></stop>
        </linearGradient>
    </defs>
    <g id="页面-1" stroke="none" stroke-width="1" fill="none" fill-rule="evenodd">
        <g id="3.16侧导航" transform="translate(-156.000000, -587.000000)" fill="url(#linearGradient-1)">
            <path d="M179.236694,602.383423 L172.25976,602.383423 C170.979259,602.385192 169.941799,603.422834 169.939847,604.703153 L169.939847,611.680088 C169.941799,612.960589 170.979259,613.998049 172.25976,614 L179.236694,614 C180.517013,613.998049 181.554474,612.960589 181.556425,611.680088 L181.556425,604.703153 C181.554474,603.422834 180.517013,602.385192 179.236694,602.383423 M165.296665,602.383423 L158.319912,602.383423 C157.039411,602.385192 156.001951,603.422834 156,604.703153 L156,611.680088 C156.001951,612.960589 157.039411,613.998049 158.319912,614 L165.296665,614 C166.577166,613.998049 167.614626,612.960589 167.616577,611.680088 L167.616577,604.703153 C167.614626,603.422834 166.577166,602.385192 165.296665,602.383423 M182.321984,592.610296 L177.388478,587.67797 C176.481796,586.77401 175.014658,586.77401 174.108021,587.67797 L173.424866,588.360943 L169.174288,592.610296 C168.739846,593.043513 168.495943,593.632328 168.497126,594.24601 C168.493447,594.862823 168.737532,595.455405 169.174288,595.890754 L169.857442,596.573863 L173.424866,600.143601 L174.108021,600.826756 C175.014114,601.732168 176.482839,601.731624 177.388478,600.825531 L181.639011,596.573863 L182.321984,595.891979 C183.227215,594.985841 183.227215,593.51766 182.321984,592.611522 M165.296665,588.443394 L158.319912,588.443394 C157.039411,588.445345 156.001951,589.482805 156,590.763306 L156,597.74024 C156.001951,599.020514 157.039411,600.058201 158.319912,600.059971 L165.296665,600.059971 C166.577166,600.058201 167.614626,599.020514 167.616577,597.74024 L167.616577,590.763306 C167.614626,589.482805 166.577166,588.445345 165.296665,588.443394" id="Fill-1备份"></path>
        </g>
    </g>
</svg>