<?xml version="1.0" encoding="UTF-8"?>
<svg width="27px" height="27px" viewBox="0 0 27 27" version="1.1" xmlns="http://www.w3.org/2000/svg" xmlns:xlink="http://www.w3.org/1999/xlink">
    <!-- Generator: Sketch 60.1 (88133) - https://sketch.com -->
    <title>编组@1.5x</title>
    <desc>Created with Sketch.</desc>
    <defs>
        <linearGradient x1="26.5115176%" y1="20.7222965%" x2="78.0113525%" y2="84.3287518%" id="linearGradient-1">
            <stop stop-color="#FF8A6B" offset="0%"></stop>
            <stop stop-color="#FC797D" offset="99.9129012%"></stop>
        </linearGradient>
    </defs>
    <g id="页面-1" stroke="none" stroke-width="1" fill="none" fill-rule="evenodd">
        <g id="3.16侧导航" transform="translate(-80.000000, -471.000000)" fill="url(#linearGradient-1)">
            <g id="编组" transform="translate(80.000000, 471.000000)">
                <path d="M16.6227181,8.6233253 C16.6941481,8.62295687 16.7470608,8.62910463 16.7680261,8.6320151 C16.7744719,8.63293593 16.7778921,8.63352789 16.7778921,8.63352789 L16.7778921,8.63352789 L16.7778921,8.63701389 L16.8489274,8.65973861 L17.1690468,8.76214787 L17.4888044,8.86452424 L17.8086607,8.96676906 L18.1282867,9.06904677 L18.3477069,9.1393257 L18.4480443,9.17142314 L18.7682952,9.27379951 L19.0875267,9.37594568 L19.7271406,9.58069842 L20.0471613,9.68297613 L20.6870382,9.88772887 L21.0064012,9.98987503 L21.108646,10.0225973 L21.3260273,10.0921199 L21.5460066,10.1625303 L21.6464097,10.1946278 L21.9655096,10.2967739 L22.285629,10.3991503 L22.3459432,10.4184548 L22.6052551,10.5013951 L22.9252429,10.6038044 L23.2448689,10.7060492 L23.5650212,10.8085571 L23.8841211,10.9105717 L24.2042404,11.0130797 L24.5239981,11.1153245 L24.8441174,11.2177337 L25.1633488,11.319847 L25.293087,11.3613501 C25.3583671,11.382266 25.4225949,11.4060431 25.4858032,11.4326485 C25.610411,11.4851686 25.7237057,11.5468312 25.8244378,11.6159591 C25.9905486,11.7302733 26.1220955,11.8651747 26.2128957,12.0140529 C26.3074451,12.168752 26.3579262,12.3384475 26.3574329,12.5155754 L26.3574329,12.5155754 L26.3557557,12.5651686 C26.3567752,12.5786521 26.3574329,12.5922672 26.3574329,12.6058823 L26.3574329,12.6058823 L26.3574329,20.1680529 C26.3574329,20.2112002 26.3556241,20.2543805 26.3531905,20.2973963 C26.33997,20.5261893 26.2921527,20.7507398 26.2120078,20.9674633 C26.1945778,21.0146887 26.1750102,21.0613549 26.154456,21.1077581 C26.112953,21.201551 26.0658921,21.2938641 26.0126156,21.3840724 C25.9462173,21.4964792 25.8720906,21.604249 25.7908933,21.7066582 C25.7174244,21.7990041 25.6389238,21.8871406 25.5556875,21.9707715 L25.5556875,21.9707715 L25.4360826,22.0854722 L25.4360826,22.0854722 L25.3112076,22.1943026 C25.2301418,22.2616217 25.1461491,22.3254548 25.0595583,22.3855717 C24.9757959,22.4440443 24.8897313,22.4992611 24.8017264,22.5511564 C24.715925,22.6017691 24.6281832,22.6494548 24.5390273,22.6940163 C24.4510224,22.7380845 24.361735,22.7791929 24.2710334,22.8176046 C24.265903,22.8196436 24.2610358,22.8219786 24.2560041,22.8240175 L24.2560041,22.8240175 L24.001132,22.9306363 L22.921132,23.3822039 L22.6518884,23.4947423 L22.3814609,23.6079055 L22.1116911,23.7207069 L20.7617898,24.2850431 L20.4908689,24.3983379 L20.2219871,24.5107447 L18.3313951,25.3013086 L18.0621515,25.413847 L17.791724,25.5269116 L17.5218227,25.6396801 L17.2513951,25.7528762 L16.98202,25.8654146 L16.711724,25.9784463 L16.4419542,26.0912477 L16.1720529,26.2041808 L15.8069445,26.3567423 L15.6322502,26.4298823 L15.3618227,26.542914 L15.2783233,26.5778726 L15.2783233,26.5778726 L15.1908117,26.6130614 C15.1576948,26.6260845 15.1244134,26.6387459 15.0910334,26.6509469 C15.0002002,26.6844914 14.9083476,26.7154378 14.8157386,26.7434572 L14.8157386,26.7434572 L14.6772732,26.7834763 L14.6772732,26.7834763 L14.5378458,26.8194914 C14.4599371,26.8384012 14.3810748,26.8550419 14.3019164,26.8703671 C14.2863939,26.8733927 14.2709371,26.8767471 14.2553817,26.8796412 C14.1608324,26.8972356 14.0656253,26.9121333 13.9697934,26.9247289 C13.8738629,26.9374231 13.7775705,26.9475851 13.6808836,26.9551491 L13.6808836,26.9551491 L13.534439,26.9648836 C13.4857995,26.9674816 13.4371929,26.9694877 13.3884877,26.9708361 C13.3369871,26.9722502 13.2853549,26.9731381 13.2335583,26.9731381 L13.2335583,26.9731381 L13.1051028,26.9715267 L13.1051028,26.9715267 L13.080668,26.97091 L13.080668,26.97091 L13.0688287,26.9704085 C13.0342319,26.969389 12.9996351,26.9680407 12.9650711,26.9663635 L12.9650711,26.9663635 L12.9271199,26.9645218 C12.8830188,26.9620553 12.8389505,26.9592599 12.7949481,26.9558397 L12.7949481,26.9558397 C12.6908287,26.9477167 12.5897021,26.9370614 12.4890029,26.9236765 C12.3858373,26.9099298 12.2833294,26.8934865 12.1815778,26.8741162 L12.1815778,26.8741162 L12.0249137,26.8414515 L12.0249137,26.8414515 L11.8694171,26.8041004 C11.7625352,26.7770017 11.6565413,26.7462855 11.5515998,26.7122477 C11.4424158,26.6766643 11.3344816,26.6371016 11.2281259,26.5937898 C11.2204305,26.5905998 11.212439,26.58764 11.2047435,26.5844171 L11.2047435,26.5844171 L11.078294,26.5320614 L10.9010675,26.4587898 L10.5736144,26.3232636 L10.2462599,26.1878361 L9.91831352,26.0521783 L9.59099196,25.9166521 L9.2636704,25.7812575 L8.93569111,25.6454682 L8.6085011,25.5100736 L8.28104799,25.3746789 L7.95372643,25.2392843 L7.62637199,25.1037581 L7.29842558,24.9681004 L6.97110402,24.8326728 L6.64378246,24.6971467 L6.31655956,24.561752 L5.98910646,24.4263574 L5.66116005,24.2905681 L5.33383849,24.1551734 L5.00648404,24.0197788 L4.67929403,23.8842526 L4.35184093,23.7488251 L4.02451937,23.6134305 L3.69667162,23.4777727 L3.36921851,23.3422465 L3.04189695,23.2067203 L2.71444385,23.0713257 L2.3865961,22.935668 L2.12235128,22.8263525 C2.10104068,22.8174731 2.08009184,22.8081004 2.05901145,22.7989907 C1.94597978,22.7502855 1.83485554,22.6968446 1.72603337,22.6390297 L1.72603337,22.6390297 L1.72590183,22.6390297 L1.54071465,22.5343922 C0.577130567,21.9582608 6.57734468e-06,21.0868286 6.57734468e-06,20.1578909 L6.57734468e-06,20.1578909 L0.000392996346,12.585287 L0.000392996346,12.585287 L0.00142070646,12.5661881 C0.000532764921,12.5493829 6.57734468e-06,12.5325449 6.57734468e-06,12.5155754 L6.57734468e-06,12.5155754 L0.00578855055,12.4143172 C0.0134353228,12.3475425 0.0285412911,12.2821125 0.050356151,12.2183781 C0.0756131547,12.1444487 0.109618027,12.0727228 0.152864068,12.0041868 C0.161513276,11.9904731 0.171280633,11.9772197 0.180587576,11.9637691 C0.237218514,11.8820784 0.305655786,11.8048275 0.386425579,11.7336278 C0.461440195,11.6675912 0.546353715,11.6064548 0.640278197,11.5514682 C0.725685018,11.5016119 0.814610719,11.4582015 0.906430451,11.4215985 C0.960266017,11.3998933 1.01485798,11.380227 1.07023922,11.3627642 L1.07023922,11.3627642 L1.18096882,11.3275425 L1.45665822,11.2400638 L1.73261072,11.1524536 L2.00839878,11.0649749 L2.28408819,10.9774962 L2.55990914,10.889886 L3.11191279,10.7146655 L3.38760219,10.6271868 L3.66342314,10.5396753 L3.93907966,10.4521966 L4.21503216,10.3645864 L4.49108331,10.2769761 L4.76677272,10.1894974 L5.04259367,10.1020188 L5.59446577,9.92679829 L5.87028672,9.83928672 L6.14597613,9.75180804 L6.42189574,9.66419781 L6.69758514,9.57671912 L6.97366918,9.48910889 L7.24949013,9.40163021 L7.52514665,9.31401998 L7.80149379,9.22640974 L8.07705164,9.13893106 L8.35283971,9.05132083 L8.62852911,8.9639408 L9.18017101,8.78872034 L9.45635371,8.70111011 L9.66936102,8.63352789 C9.66936102,8.63352789 9.69376297,8.62931839 9.73500292,8.62622704 C9.80140122,8.62132692 9.91163752,8.61968258 10.0349627,8.64395298 C10.1413184,8.66490183 10.2569481,8.70522095 10.3625474,8.77961072 C10.4746911,8.85847308 10.5753903,8.97551693 10.6404073,9.14879708 C10.6404073,9.14879708 10.6567191,9.20460585 10.6548775,9.29326845 C10.6530687,9.38196395 10.6331065,9.50348039 10.5604926,9.63492862 C10.5110309,9.72431474 10.4370358,9.81850231 10.3278519,9.90982875 C10.2578361,9.9684 10.1733172,10.0258202 10.0714341,10.0804451 C9.99280195,10.1224414 9.90377759,10.1626619 9.80320999,10.2001527 C9.76055591,10.2161028 9.71609306,10.2314938 9.66922948,10.2463915 L9.66922948,10.2463915 L9.52791523,10.291249 L9.25209428,10.3788592 L8.97614178,10.4664694 L8.14910646,10.7289055 L7.8727922,10.8166473 L7.5971028,10.9041259 L7.3214134,10.9916375 L7.23913082,11.0177496 L7.04523069,11.0793793 L6.76954129,11.166858 L6.21789939,11.3419469 L5.94224287,11.4294256 L5.66589574,11.5171674 L5.39020633,11.604646 L5.18091523,11.6710443 L5.11454982,11.6921247 L4.83886041,11.7796034 L4.56277637,11.8672465 L4.28685676,11.9548568 L4.01103581,12.042467 L3.459657,12.2174244 L3.18360585,12.3050346 L2.90765335,12.3926448 L2.6318324,12.4802551 L2.52028063,12.5156412 L2.64955834,12.5566838 L2.96905286,12.6581722 L3.28881048,12.7596607 L3.60856809,12.8611491 L3.92802972,12.962506 L4.24752424,13.0638629 L4.56688721,13.1652197 L4.88664482,13.2667082 L5.20636955,13.3681966 L5.52586407,13.4695535 L5.84535859,13.5709104 L6.16472156,13.6722672 L6.48474227,13.7737557 L6.8042039,13.8752441 L7.12369842,13.976601 L7.44345603,14.0779579 L7.762819,14.1793147 L8.08257661,14.2809347 L8.40203825,14.3822916 L8.72153276,14.4836485 L9.04155347,14.5851369 L9.36104799,14.6866253 L9.68050962,14.7879822 L9.99987259,14.8893391 L10.3196302,14.9908275 L10.6391247,15.0921844 L10.9588495,15.1936728 L11.2782124,15.2950297 L11.5977069,15.3963866 L11.9174646,15.497875 L12.2365644,15.5991004 L12.5566838,15.7007203 L12.8760468,15.8020772 L13.137858,15.885182 L13.1879773,15.8692648 L17.6033817,14.4769725 L17.8795973,14.3898555 L18.1547605,14.3030346 L18.4312063,14.2159177 L18.7070273,14.1289652 L18.9830784,14.0418482 L19.2590309,13.9548957 L19.5348519,13.8679104 L19.8112977,13.7806948 L20.086724,13.6938409 L20.3631698,13.6066253 L20.6387276,13.51964 L21.1909944,13.3456034 L21.4670784,13.2584865 L21.7426363,13.1716655 L23.6744682,12.5624719 L23.8390991,12.5105108 L23.648389,12.4495717 L23.0087752,12.2449177 L22.6890175,12.1426728 L22.3689968,12.0402636 L22.049897,11.9381503 L21.7295145,11.8357739 L21.4882575,11.7584572 L21.4097569,11.7333647 L21.3315523,11.708305 L21.0905255,11.6312514 L20.7706692,11.5289737 L20.1306607,11.324221 L19.8112977,11.2220748 L19.5694816,11.1446923 L19.4909152,11.1195669 L19.4126777,11.0945072 L19.1718153,11.0174536 L18.8515315,10.9150443 L18.5318068,10.8127995 L18.2121808,10.7105547 L17.5725669,10.5059006 L17.2524146,10.4035242 L16.9333147,10.3013781 L16.8942124,10.2888811 L16.7696704,10.2490882 C16.7227739,10.2286655 16.67864,10.2129786 16.6361503,10.1968641 C16.6276984,10.1937069 16.6188848,10.1906156 16.6106302,10.1874256 C16.5512039,10.1643391 16.4962831,10.1402331 16.4450784,10.1154365 C16.3835474,10.0856412 16.3274755,10.0548592 16.2767313,10.0232551 C16.0821077,9.90187016 15.9636826,9.76940244 15.8926473,9.64532083 C15.8800845,9.6233525 15.8690017,9.60164726 15.8592343,9.58030378 C15.7910273,9.4308665 15.78764,9.29931961 15.7946119,9.22190426 C15.7988543,9.17579708 15.8066814,9.14879708 15.8066814,9.14879708 C15.8556497,9.01830256 15.9250078,8.91987259 16.0041333,8.84525262 C16.0839164,8.77010646 16.1735985,8.71923069 16.2631162,8.68568624 C16.3625657,8.64845847 16.4613574,8.63224531 16.5456132,8.62635859 L16.5456132,8.62635859 Z M13.3006374,0.0342021924 C13.3252367,0.0356163216 13.349803,0.038181486 13.3742379,0.041864799 L13.3742379,0.041864799 C13.4907227,0.0595578563 13.601814,0.102803898 13.6994876,0.168412911 C13.7399711,0.195511571 13.7779882,0.226227771 13.8129468,0.260133983 L13.8129468,0.260133983 L14.0773231,0.519116931 L14.4598944,0.893861145 L15.608233,2.01868575 L15.9914291,2.39405481 L16.7570649,3.14403654 L17.1398993,3.51901096 L17.5233585,3.89464312 L17.6230381,3.9922838 C17.7858603,4.151324 17.8655777,4.3633447 17.8620588,4.57434592 C17.8598883,4.70095981 17.8277909,4.82721194 17.765635,4.9414933 C17.7304462,5.00624726 17.6865095,5.065838 17.634976,5.11852253 C17.602747,5.15114616 17.56792,5.18107308 17.5306922,5.2077771 C17.4502513,5.26572351 17.3595497,5.30798295 17.2634876,5.33251644 C17.2186301,5.34389525 17.1729175,5.35113033 17.126909,5.3546821 C17.1230942,5.35497808 17.1192793,5.35550426 17.1154973,5.35576736 C17.0965217,5.35675396 17.0810978,5.35731303 17.065641,5.35731303 L17.065641,5.35731303 L17.0185103,5.35589068 L17.0185103,5.35589068 L16.9719797,5.35165652 C16.8579285,5.33830451 16.7482184,5.30055055 16.6501831,5.24066382 C16.598814,5.20945432 16.5511283,5.17232521 16.5079809,5.13032887 L16.5079809,5.13032887 L16.2757019,4.90281851 L15.8926374,4.52744945 L15.5101977,4.15270524 L14.7445619,3.40275639 L14.3609711,3.02699269 L14.0558481,2.72805238 L14.0558481,11.59257 C14.0558481,11.6665652 14.0455875,11.7401657 14.0252963,11.8113325 C13.9867531,11.94676 13.9128895,12.069296 13.8114011,12.1668051 C13.7371429,12.2382351 13.6495326,12.2946358 13.5537007,12.3327844 C13.4635253,12.3684994 13.3675619,12.3875079 13.2705789,12.388659 C13.2668298,12.3887905 13.2632452,12.3889227 13.2593974,12.3889227 C13.1571197,12.3890536 13.0557629,12.3693873 12.9609504,12.3311072 C12.8122038,12.2709903 12.6851624,12.16743 12.596138,12.0338441 C12.5090211,11.9031851 12.4626508,11.7496699 12.4630454,11.59257 L12.4630454,11.59257 L12.4630454,2.747324 L12.3532038,2.8570341 L12.2687836,2.94142144 L10.5854108,4.6244324 L10.3449102,4.86480146 L10.1045741,5.10513764 L10.0856971,5.12391596 C10.068596,5.14108283 10.0507385,5.15742753 10.0322233,5.17291717 C10.0256459,5.17840926 10.0185753,5.18317783 10.0118335,5.18847259 C9.99966541,5.19797686 9.98762887,5.20771133 9.97496748,5.21649208 C9.96131949,5.22593057 9.94701376,5.23434957 9.93283959,5.24290012 C9.92652533,5.24671498 9.92053995,5.25095737 9.91412704,5.2546078 C9.89363861,5.26618392 9.872624,5.27680633 9.85118185,5.28650792 C9.8508201,5.28667235 9.85045834,5.28690256 9.85009659,5.28706699 L9.85009659,5.28706699 L9.76025981,5.32122412 C9.69899306,5.34036175 9.63519281,5.35212789 9.5701648,5.3558989 C9.46650585,5.36208161 9.36268246,5.34794032 9.26441693,5.31442875 C9.14957649,5.27496468 9.04525981,5.20984896 8.95958989,5.12391596 C8.94301498,5.1072095 8.92732801,5.0898782 8.91243033,5.07211937 C8.78690171,4.92248477 8.72494312,4.73746407 8.7267449,4.55287089 C8.72740962,4.49133983 8.73510512,4.42984166 8.74990414,4.36969184 C8.78446809,4.22890378 8.85704909,4.10018514 8.95958989,3.99767722 L8.95958989,3.99767722 L9.68128904,3.27607674 L9.92162521,3.03583922 L10.1621258,2.79550305 L12.6923317,0.265790499 C12.7288359,0.229319123 12.7686618,0.196563946 12.8113158,0.167788063 C12.893138,0.112669915 12.9843329,0.0734689403 13.0805594,0.0520267966 C13.1528116,0.0359451888 13.2268725,0.0299598051 13.3006374,0.0342021924 Z" id="形状结合"></path>
            </g>
        </g>
    </g>
</svg>