<?xml version="1.0" encoding="UTF-8"?>
<svg width="25px" height="27px" viewBox="0 0 25 27" version="1.1" xmlns="http://www.w3.org/2000/svg" xmlns:xlink="http://www.w3.org/1999/xlink">
    <!-- Generator: Sketch 60.1 (88133) - https://sketch.com -->
    <title>编组备份@1.5x</title>
    <desc>Created with Sketch.</desc>
    <defs>
        <linearGradient x1="27.4635508%" y1="20.7222965%" x2="76.8759988%" y2="84.3287518%" id="linearGradient-1">
            <stop stop-color="#FF8A6B" offset="0%"></stop>
            <stop stop-color="#FC797D" offset="99.9129012%"></stop>
        </linearGradient>
    </defs>
    <g id="页面-1" stroke="none" stroke-width="1" fill="none" fill-rule="evenodd">
        <g id="3.16侧导航" transform="translate(-81.000000, -172.000000)" fill="url(#linearGradient-1)">
            <g id="编组备份" transform="translate(81.000000, 172.000000)">
                <path d="M18.7067275,17.8362559 C17.6619247,17.8362559 16.8119634,16.9675221 16.8119634,15.8997771 C16.8119634,14.8310647 17.6619247,13.9614896 18.7067275,13.9614896 C19.7515719,13.9614896 20.6015331,14.8310647 20.6015331,15.8997771 C20.6015331,16.9675221 19.7515719,17.8362559 18.7067275,17.8362559 M12.6641874,17.8362559 C11.6193846,17.8362559 10.7693818,16.9675221 10.7693818,15.8997771 C10.7693818,14.8310647 11.6193846,13.9614896 12.6641874,13.9614896 C13.7088242,13.9614896 14.5586608,14.8310647 14.5586608,15.8997771 C14.5584947,16.9675221 13.7088242,17.8362559 12.6641874,17.8362559 M6.62177193,17.8362559 C5.57663686,17.8362559 4.72630188,16.9675221 4.72630188,15.8997771 C4.72630188,14.8310647 5.57663686,13.9614896 6.62177193,13.9614896 C7.66640868,13.9614896 8.51641145,14.8310647 8.51641145,15.8997771 C8.51641145,16.9675221 7.66640868,17.8362559 6.62177193,17.8362559 M24.2537752,10.5200386 C23.4011563,7.82701447 21.6320925,5.46857815 19.1403456,3.70132837 C19.0233659,3.61669287 18.8833806,3.5710099 18.739824,3.5710099 C18.5336457,3.5710099 18.3380566,3.66367988 18.2061689,3.82424335 C18.0763991,3.98131539 18.0227055,4.1886976 18.0590411,4.39309317 C18.0791398,4.50666963 18.0992801,4.6106552 18.1187145,4.71123347 C18.1954551,5.10870902 18.2509343,5.39593128 18.2225303,5.81166321 C18.2189591,5.8634036 18.1764776,5.93096056 18.1302588,5.98122866 C16.1472097,1.81562254 12.1642518,0.93519462 9.1545468,0.934858097 C7.96016605,0.934858097 6.71553842,1.06782669 5.45496467,1.33006213 C5.20696934,1.38163425 5.00564961,1.52806376 4.90278885,1.73166009 C4.80968679,1.91569603 4.80677994,2.12602281 4.89435901,2.32368793 C6.66055754,6.3098853 5.8741316,8.25309447 4.96835895,9.49583131 C4.91773834,9.48072985 4.84361381,9.44737202 4.8109741,9.43256502 C4.48428634,9.28550453 4.02882538,8.47343281 3.80121948,7.03748978 C3.74673692,6.69600321 3.45958224,6.44823826 3.11848483,6.44823826 C2.91214042,6.44823826 2.71684202,6.54141302 2.58300261,6.7039115 C1.15586669,8.43220876 0.282692218,10.6098902 0.0578685828,13.0012217 C-0.160310837,15.3213785 0.240999767,17.6678682 1.21865452,19.7870368 C2.17454947,21.8597231 3.64616011,23.597401 5.47394221,24.8127112 C7.51230441,26.1676784 9.91613998,26.8548581 12.6182593,26.8548581 C15.3913056,26.8548581 17.9686798,25.9759025 20.0717815,24.3136899 C21.0520109,23.5387198 21.9112325,22.6093699 22.6253196,21.5512999 C23.3264089,20.5126642 23.8725634,19.3729875 24.2490412,18.1636085 C25.0353011,15.6368687 25.0370867,12.9938181 24.2537752,10.5200386" id="Fill-1"></path>
            </g>
        </g>
    </g>
</svg>