<?xml version="1.0" encoding="UTF-8"?>
<svg width="27px" height="27px" viewBox="0 0 27 27" version="1.1" xmlns="http://www.w3.org/2000/svg" xmlns:xlink="http://www.w3.org/1999/xlink">
    <!-- Generator: Sketch 60.1 (88133) - https://sketch.com -->
    <title>编组@1.5x</title>
    <desc>Created with Sketch.</desc>
    <defs>
        <polygon id="path-1" points="1.13604488e-05 0 26.9887532 0 26.9887532 26.9887456 1.13604488e-05 26.9887456"></polygon>
        <linearGradient x1="90.2698864%" y1="87.8671875%" x2="20.5681818%" y2="11.03125%" id="linearGradient-3">
            <stop stop-color="#8978E7" offset="0%"></stop>
            <stop stop-color="#FFA7D8" offset="100%"></stop>
        </linearGradient>
    </defs>
    <g id="页面-1" stroke="none" stroke-width="1" fill="none" fill-rule="evenodd">
        <g id="3.16侧导航" transform="translate(-80.000000, -587.000000)">
            <g id="编组" transform="translate(80.000000, 587.000000)">
                <mask id="mask-2" fill="white">
                    <use xlink:href="#path-1"></use>
                </mask>
                <g id="Clip-2"></g>
                <path d="M19.2333269,12.8213192 C18.7534616,13.0984006 18.1622259,13.0984006 17.6823606,12.8213192 C17.2023816,12.5441243 16.9067827,12.0321467 16.9067827,11.4780219 C16.9067827,10.9237835 17.2023816,10.4118059 17.6823606,10.1347624 C18.1622259,9.85768107 18.7534616,9.85768107 19.2333269,10.1347624 C19.7133438,10.4118059 20.0088669,10.9237835 20.0088669,11.4780219 C20.0088669,12.0321467 19.7133438,12.5441243 19.2333269,12.8213192 M13.5718851,12.8213192 C13.0920576,13.0984006 12.5007842,13.0984006 12.0209188,12.8213192 C11.5409398,12.5441243 11.2453788,12.0321467 11.2453788,11.4780219 C11.2453788,10.9237835 11.5409398,10.4118059 12.0209188,10.1347624 C12.5007842,9.85768107 13.0920576,9.85768107 13.5718851,10.1347624 C14.051902,10.4118059 14.347463,10.9237835 14.347463,11.4780219 C14.347463,12.0321467 14.051902,12.5441243 13.5718851,12.8213192 M7.91048121,12.8213192 C7.43061585,13.0984006 6.83934236,13.0984006 6.35951487,12.8213192 C5.87949804,12.5441243 5.58393703,12.0321467 5.58393703,11.4780219 C5.58393703,10.6212547 6.27828766,9.92694194 7.13490337,9.92694194 C7.99167055,9.92694194 8.68602118,10.6212547 8.68602118,11.4780219 C8.68602118,12.0321467 8.39046017,12.5441243 7.91048121,12.8213192 M13.9597687,-7.57363254e-06 L13.0290072,-7.57363254e-06 C5.83197349,-7.57363254e-06 1.13604488e-05,5.83199243 1.13604488e-05,13.0290261 L1.13604488e-05,13.9597498 C1.13604488e-05,21.1567456 5.83197349,26.9887456 13.0290072,26.9887456 L26.9887645,26.9887456 L26.9887645,13.0290261 C26.9887645,5.83199243 21.1567645,-7.57363254e-06 13.9597687,-7.57363254e-06" id="Fill-1" fill="url(#linearGradient-3)" mask="url(#mask-2)"></path>
            </g>
        </g>
    </g>
</svg>