<?xml version="1.0" encoding="UTF-8"?>
<svg width="24px" height="27px" viewBox="0 0 24 27" version="1.1" xmlns="http://www.w3.org/2000/svg" xmlns:xlink="http://www.w3.org/1999/xlink">
    <!-- Generator: Sketch 60.1 (88133) - https://sketch.com -->
    <title>iphone@1.5x</title>
    <desc>Created with Sketch.</desc>
    <defs>
        <linearGradient x1="13.3956714%" y1="0%" x2="86.6043286%" y2="100%" id="linearGradient-1">
            <stop stop-color="#799AFF" offset="0%"></stop>
            <stop stop-color="#4361FF" offset="100%"></stop>
            <stop stop-color="#4361FF" offset="100%"></stop>
        </linearGradient>
    </defs>
    <g id="页面-1" stroke="none" stroke-width="1" fill="none" fill-rule="evenodd">
        <g id="3.16侧导航" transform="translate(-82.000000, -106.000000)" fill="url(#linearGradient-1)">
            <path d="M98.3631667,112.367871 C101.703111,112.192133 103.988496,115.004731 103.988496,115.004731 L103.988496,115.004731 L103.988496,115.180601 C103.46115,115.532209 100.824158,117.290116 101.000027,120.102715 C101.175765,124.84909 104.691579,125.728044 105.101756,125.669475 C101.937549,132.701071 99.1249506,133.228548 97.1911737,132.525333 C95.6090046,131.470641 92.796406,131.646379 91.9174524,132.173725 C90.1595454,133.052679 89.104722,133.404286 87.5226847,132.349595 C85.9405486,131.294772 81.7215188,125.728044 82.0145253,119.751107 C82.3661331,113.77417 86.9366388,112.367871 88.5188079,112.367871 C90.452453,112.367871 92.0346221,113.598432 93.7925292,113.598432 C95.1988285,113.598432 96.2536518,112.543741 98.3631667,112.367871 Z M94.2027053,108.324744 C95.7848744,106.215229 98.0701272,105.863621 98.2458652,106.039491 C98.3631667,106.215229 98.7147745,108.324744 97.1911737,110.258389 C95.4332666,112.543741 93.1480138,112.719479 92.972144,112.543741 C92.796406,112.367871 92.796406,110.258389 94.2027053,108.324744 Z" id="iphone"></path>
        </g>
    </g>
</svg>