<?xml version="1.0" encoding="UTF-8"?>
<svg width="31px" height="27px" viewBox="0 0 31 27" version="1.1" xmlns="http://www.w3.org/2000/svg" xmlns:xlink="http://www.w3.org/1999/xlink">
    <!-- Generator: Sketch 60.1 (88133) - https://sketch.com -->
    <title>编组@1.5x</title>
    <desc>Created with Sketch.</desc>
    <defs>
        <polygon id="path-1" points="1.58823529e-05 0 30.5232618 0 30.5232618 26.9623926 1.58823529e-05 26.9623926"></polygon>
        <linearGradient x1="90.2698864%" y1="79.5473664%" x2="20.5681818%" y2="19.593096%" id="linearGradient-3">
            <stop stop-color="#8978E7" offset="0%"></stop>
            <stop stop-color="#FFA7D8" offset="100%"></stop>
        </linearGradient>
    </defs>
    <g id="页面-1" stroke="none" stroke-width="1" fill="none" fill-rule="evenodd">
        <g id="3.16侧导航" transform="translate(-154.000000, -355.000000)">
            <g id="编组" transform="translate(154.000000, 355.000000)">
                <mask id="mask-2" fill="white">
                    <use xlink:href="#path-1"></use>
                </mask>
                <g id="Clip-2"></g>
                <path d="M23.6457821,17.0509884 L28.6144571,17.0509884 C29.671785,17.0509884 30.5232776,17.902481 30.5232776,18.959809 C30.5232776,20.0172957 29.671785,20.8687884 28.6144571,20.8687884 L25.8539453,20.8687884 L27.7161115,24.0969163 C28.2401894,25.0140428 27.9313968,26.1743678 27.0142703,26.7075781 C26.0973026,27.231656 24.9370174,26.9228634 24.4036085,26.0058957 C21.2690276,20.5693266 18.9110144,16.4990369 17.3483497,13.7853384 C15.7482026,11.0250251 16.8897468,8.25522221 18.02196,7.31947368 C19.2759512,9.47165162 21.1472497,12.7185604 23.6457821,17.0509884 L23.6457821,17.0509884 Z M7.84125265,22.8243031 L6.00735706,26.0058957 C5.48331882,26.9228634 4.31370265,27.231656 3.39669529,26.7075781 C2.47960853,26.183659 2.170935,25.0140428 2.69489382,24.0969163 L4.06097471,21.7389428 C5.59556735,21.2616781 6.84939971,21.6266149 7.84125265,22.8243031 L7.84125265,22.8243031 Z M15.2055026,2.42556485 L16.0569953,0.956606029 C16.5810732,0.0395192647 17.7506894,-0.269313088 18.6676571,0.254804559 C19.5846247,0.778723676 19.8934174,1.94849868 19.3694982,2.86546632 L11.1818674,17.0417369 L17.1050321,17.0417369 C19.0233026,17.0417369 20.0994115,19.2967531 19.2665012,20.8593384 L1.90883647,20.8593384 C0.851468824,20.8593384 1.58823529e-05,20.0078457 1.58823529e-05,18.9505178 C1.58823529e-05,17.8931899 0.851468824,17.0417369 1.90883647,17.0417369 L6.77467324,17.0417369 L13.0066306,6.24340456 L11.0602879,2.86546632 C10.5361703,1.94849868 10.8449629,0.788173676 11.7620894,0.254804559 C12.6790571,-0.269313088 13.8393424,0.0395192647 14.3727512,0.956606029 L15.2055026,2.42556485 Z" id="Fill-1" fill="url(#linearGradient-3)" mask="url(#mask-2)"></path>
            </g>
        </g>
    </g>
</svg>