<?xml version="1.0" encoding="UTF-8"?>
<svg width="24px" height="27px" viewBox="0 0 24 27" version="1.1" xmlns="http://www.w3.org/2000/svg" xmlns:xlink="http://www.w3.org/1999/xlink">
    <!-- Generator: Sketch 60.1 (88133) - https://sketch.com -->
    <title>编组@1.5x</title>
    <desc>Created with Sketch.</desc>
    <defs>
        <linearGradient x1="80.8315922%" y1="87.8671875%" x2="27.4662931%" y2="11.03125%" id="linearGradient-1">
            <stop stop-color="#8978E7" offset="0%"></stop>
            <stop stop-color="#FFA7D8" offset="100%"></stop>
        </linearGradient>
    </defs>
    <g id="页面-1" stroke="none" stroke-width="1" fill="none" fill-rule="evenodd">
        <g id="3.16侧导航" transform="translate(-303.000000, -587.000000)" fill="url(#linearGradient-1)">
            <g id="编组" transform="translate(303.000000, 587.000000)">
                <path d="M16.3663004,15.3710309 L16.6136331,15.3750118 C20.4723924,15.4994101 23.5573088,18.5234152 23.5802514,22.2142932 L23.5802514,22.2142932 L23.5802514,22.7078923 C23.5802514,25.0423849 21.5693559,26.9489072 19.1100531,26.9489072 L19.1100531,26.9489072 L4.47012345,26.9489072 C2.01105096,26.9489072 -1.72707889e-05,25.0423849 -1.72707889e-05,22.7078923 L-1.72707889e-05,22.7078923 L-1.72707889e-05,22.2142932 C-1.72707889e-05,18.443274 3.23888891,15.3710309 7.21393369,15.3710309 L7.21393369,15.3710309 L16.3663004,15.3710309 Z M11.7783269,1.15138594e-05 C15.8931499,1.15138594e-05 19.2281392,3.18675991 19.2281392,7.06733348 C19.2281392,10.9732375 15.8711009,14.1364401 11.7783269,14.1364401 C7.68704968,14.1364401 4.32868721,10.9732375 4.32868721,7.06733348 C4.32868721,3.1631565 7.66367655,1.15138594e-05 11.7783269,1.15138594e-05 Z" id="形状结合"></path>
            </g>
        </g>
    </g>
</svg>