<?xml version="1.0" encoding="UTF-8"?>
<svg width="25px" height="27px" viewBox="0 0 25 27" version="1.1" xmlns="http://www.w3.org/2000/svg" xmlns:xlink="http://www.w3.org/1999/xlink">
    <!-- Generator: Sketch 60.1 (88133) - https://sketch.com -->
    <title>编组@1.5x</title>
    <desc>Created with Sketch.</desc>
    <defs>
        <linearGradient x1="9.58169438%" y1="0%" x2="90.4183056%" y2="100%" id="linearGradient-1">
            <stop stop-color="#799AFF" offset="0%"></stop>
            <stop stop-color="#4361FF" offset="100%"></stop>
            <stop stop-color="#4361FF" offset="100%"></stop>
        </linearGradient>
    </defs>
    <g id="页面-1" stroke="none" stroke-width="1" fill="none" fill-rule="evenodd">
        <g id="3.16侧导航" transform="translate(-157.000000, -172.000000)" fill="url(#linearGradient-1)">
            <g id="编组" transform="translate(157.000000, 172.000000)">
                <path d="M19.8954655,12.474361 L17.6402994,14.8960969 C17.3799483,15.1770367 17.0018381,15.3035298 16.6292082,15.2304152 C16.25925,15.1601803 15.9468355,14.9017508 15.8016403,14.5449222 L13.9026631,9.8869409 L11.2336617,15.3625271 C11.0555844,15.7276786 10.7021015,15.9665125 10.3075159,15.9946416 C10.2829228,15.9973808 10.2582955,15.9973808 10.2363398,15.9973808 C9.8663816,15.9973808 9.51837906,15.8091511 9.31005706,15.4917243 L7.60292648,12.8957707 L6.16166162,14.5842889 C5.75330667,15.0618162 5.04914956,15.1096813 4.58605956,14.6939256 C4.12300381,14.2781348 4.07361211,13.5532751 4.47915838,13.078522 L6.8768137,10.2691243 C7.10428268,10.0021613 7.43584416,9.85607264 7.78932705,9.87854782 C8.13465792,9.90105812 8.45241576,10.086373 8.64696836,10.3814651 L10.0965223,12.5868774 L13.0011447,6.63088415 C13.195663,6.22910517 13.5875769,5.97625938 14.0396719,5.99876968 C14.4753259,6.01274644 14.8643969,6.2880674 15.0316504,6.70111909 L17.210023,12.0502122 L18.2841384,10.8955849 C18.7116061,10.4375477 19.4186061,10.4208318 19.8652208,10.8589574 C20.3036834,11.2916397 20.3201245,12.0164643 19.8954655,12.474361 M16.4783571,-1.24344979e-14 L7.77486555,-1.24344979e-14 C3.4879916,-1.24344979e-14 2.13162821e-14,3.4879916 2.13162821e-14,7.77781513 L2.13162821e-14,14.7660504 C2.13162821e-14,19.0558739 3.4879916,22.5438655 7.77486555,22.5438655 L10.8968067,22.5438655 L10.8968067,24.5132017 L5.3455084,24.5132017 C4.66483613,24.5132017 4.11122269,25.0668529 4.11122269,25.7475252 C4.11122269,26.4281975 4.66188655,26.9818487 5.3455084,26.9818487 L18.9136134,26.9818487 C19.5942857,26.9818487 20.147937,26.4281975 20.147937,25.7475252 C20.147937,25.0668529 19.5972353,24.5132017 18.9136134,24.5132017 L13.3623151,24.5132017 L13.3623151,22.5438655 L16.4783571,22.5438655 C20.7680294,22.5438655 24.2591597,19.0527731 24.2591597,14.7660504 L24.2591597,7.77781513 C24.2591597,3.49109244 20.7680294,-1.24344979e-14 16.4783571,-1.24344979e-14" id="Fill-1"></path>
            </g>
        </g>
    </g>
</svg>