<?xml version="1.0" encoding="UTF-8"?>
<svg width="27px" height="27px" viewBox="0 0 27 27" version="1.1" xmlns="http://www.w3.org/2000/svg" xmlns:xlink="http://www.w3.org/1999/xlink">
    <!-- Generator: Sketch 60.1 (88133) - https://sketch.com -->
    <title>编组备份@1.5x</title>
    <desc>Created with Sketch.</desc>
    <defs>
        <polygon id="path-1" points="0 0 27 0 27 27 0 27"></polygon>
        <linearGradient x1="50%" y1="0.607052365%" x2="50%" y2="100%" id="linearGradient-3">
            <stop stop-color="#8ADD8F" offset="0%"></stop>
            <stop stop-color="#44C2AC" offset="100%"></stop>
        </linearGradient>
    </defs>
    <g id="页面-1" stroke="none" stroke-width="1" fill="none" fill-rule="evenodd">
        <g id="3.16侧导航" transform="translate(-232.000000, -587.000000)">
            <g id="编组备份" transform="translate(232.000000, 587.000000)">
                <mask id="mask-2" fill="white">
                    <use xlink:href="#path-1"></use>
                </mask>
                <g id="Clip-2"></g>
                <path d="M3.3749691,0 L23.6250309,0 C24.5201645,0 25.3785653,0.355512953 26.0114276,0.988574191 C26.6444383,1.62143767 27,2.47984004 27,3.37492584 L27,23.6250742 C27,24.52016 26.6444383,25.3786118 26.0114276,26.0114258 C25.3785653,26.644487 24.5201645,27 23.6250309,27 L3.3749691,27 C2.4798355,27 1.62143471,26.644487 0.988572381,26.0114258 C0.355512302,25.3786118 0,24.52016 0,23.6250742 L0,3.37492584 C0,1.51094241 1.51093964,0 3.3749691,0 L3.3749691,0 Z M13.4999753,3.95543385 C12.6417722,3.69553515 11.7302745,4.15205115 11.424349,4.99502867 L5.65319437,20.8507284 C5.44693692,21.4174925 5.55876682,22.051147 5.94651303,22.5131012 C6.33411092,22.975006 6.9387933,23.1950078 7.5325992,23.0901485 C8.1266523,22.9854376 8.61950477,22.5717354 8.82556447,22.0049713 L10.077743,18.5624135 L16.922257,18.5624135 L18.1744355,22.0049713 C18.3804952,22.5717354 18.8733477,22.9854376 19.4673514,23.0901485 C20.0612067,23.1950078 20.6658891,22.975006 21.0536353,22.5131012 C21.4412332,22.051147 21.5530631,21.4174925 21.3468056,20.8507284 L15.575651,4.99502867 C15.2697255,4.15205115 14.3582278,3.69553515 13.4999753,3.95543385 L13.4999753,3.95543385 Z M13.4999753,9.16136758 L15.693809,15.1874876 L11.3061415,15.1874876 L13.4999753,9.16136758 Z" id="Fill-1" fill="url(#linearGradient-3)" mask="url(#mask-2)"></path>
            </g>
        </g>
    </g>
</svg>