<?xml version="1.0" encoding="UTF-8"?>
<svg width="23px" height="27px" viewBox="0 0 23 27" version="1.1" xmlns="http://www.w3.org/2000/svg" xmlns:xlink="http://www.w3.org/1999/xlink">
    <!-- Generator: Sketch 60.1 (88133) - https://sketch.com -->
    <title>编组@1.5x</title>
    <desc>Created with Sketch.</desc>
    <defs>
        <linearGradient x1="28.3211553%" y1="20.7069319%" x2="86.7346939%" y2="100%" id="linearGradient-1">
            <stop stop-color="#7182EE" offset="0%"></stop>
            <stop stop-color="#3D8FF2" offset="100%"></stop>
        </linearGradient>
        <polygon id="path-2" points="3.29268293e-05 0.0171224708 22.9275274 0.0171224708 22.9275274 26.9907443 3.29268293e-05 26.9907443"></polygon>
        <linearGradient x1="13.8751433%" y1="0%" x2="86.1248567%" y2="100%" id="linearGradient-4">
            <stop stop-color="#799AFF" offset="0%"></stop>
            <stop stop-color="#4361FF" offset="100%"></stop>
            <stop stop-color="#4361FF" offset="100%"></stop>
        </linearGradient>
    </defs>
    <g id="页面-1" stroke="none" stroke-width="1" fill="none" fill-rule="evenodd">
        <g id="3.16侧导航" transform="translate(-303.000000, -106.000000)">
            <g id="编组" transform="translate(303.000000, 106.000000)">
                <mask id="mask-3" fill="white">
                    <use xlink:href="#path-2"></use>
                </mask>
                <g id="Clip-2"></g>
                <path d="M19.5518689,7.54037232 C19.3899348,3.71687598 19.2308323,1.55631622 19.070314,0.891358902 C18.9085116,0.226500366 18.4270884,-0.106620366 17.6232128,0.0592979268 L11.1928335,2.88613207 C10.7112787,3.38503939 10.871797,3.71687598 11.354636,3.88407841 C11.6756726,4.04999671 12.3188982,4.5476528 13.604197,5.21389427 C10.5507604,10.033954 6.8527811,13.0266735 0.744722561,14.3564894 C-0.219671341,14.5224077 -0.219671341,15.3544687 0.584204268,15.3544687 C7.01458354,15.0213479 12.317614,12.1959296 16.1761116,6.875415 C16.9798555,7.37445402 17.6232128,7.87349305 18.587475,8.37243329 C19.3913506,8.70426988 19.7122555,8.53835159 19.5518689,7.54037232 L19.5518689,7.54037232 Z M14.8907799,15.3544687 C15.855075,15.3544687 16.4984323,16.019426 16.4984323,17.0161211 L16.4984323,25.3278077 C16.4984323,26.3259187 15.855075,26.9907443 14.8907799,26.9907443 C13.9265177,26.9907443 13.2831604,26.3259187 13.2831604,25.3278077 L13.2831604,17.0161211 C13.2831604,16.0180101 13.9265177,15.3544687 14.8907799,15.3544687 L14.8907799,15.3544687 Z M8.46040061,18.678926 C9.4246628,18.678926 10.068053,19.3439162 10.068053,20.3405455 L10.068053,25.3278077 C10.068053,26.3259187 9.4246628,26.9907443 8.46040061,26.9907443 C7.49613841,26.9907443 6.8527811,26.3259187 6.8527811,25.3278077 L6.8527811,20.3418296 C6.8527811,19.3439162 7.49613841,18.6803418 8.46040061,18.6803418 L8.46040061,18.678926 Z M21.319875,10.3670748 C22.2841372,10.3670748 22.9275274,11.0320321 22.9275274,12.0287272 L22.9275274,25.3278077 C22.9275274,26.3259187 22.2841372,26.9907443 21.319875,26.9907443 C20.3556128,26.9907443 19.7122555,26.3259187 19.7122555,25.3278077 L19.7122555,12.0300113 C19.7122555,11.0320321 20.3556128,10.3670748 21.319875,10.3670748 L21.319875,10.3670748 Z M2.03130549,20.3418296 C2.99560061,20.3418296 3.63895793,21.0068199 3.63895793,22.0033504 L3.63895793,25.3278077 C3.63895793,26.3259187 2.99560061,26.9907443 2.03130549,26.9907443 C1.06704329,26.9907443 0.423685976,26.3259187 0.423685976,25.3278077 L0.423685976,22.0033504 C0.423685976,21.005404 1.06704329,20.3405455 2.03130549,20.3405455 L2.03130549,20.3418296 Z" id="Fill-1" fill="url(#linearGradient-4)" mask="url(#mask-3)"></path>
            </g>
        </g>
    </g>
</svg>