<?xml version="1.0" encoding="UTF-8"?>
<svg width="27px" height="27px" viewBox="0 0 27 27" version="1.1" xmlns="http://www.w3.org/2000/svg" xmlns:xlink="http://www.w3.org/1999/xlink">
    <!-- Generator: Sketch 60.1 (88133) - https://sketch.com -->
    <title>编组@1.5x</title>
    <desc>Created with Sketch.</desc>
    <defs>
        <polygon id="path-1" points="1.16129032e-05 0 26.9548839 0 26.9548839 26.9548781 1.16129032e-05 26.9548781"></polygon>
        <linearGradient x1="0%" y1="0%" x2="100%" y2="100%" id="linearGradient-3">
            <stop stop-color="#799AFF" offset="0%"></stop>
            <stop stop-color="#4361FF" offset="100%"></stop>
            <stop stop-color="#4361FF" offset="100%"></stop>
        </linearGradient>
    </defs>
    <g id="页面-1" stroke="none" stroke-width="1" fill="none" fill-rule="evenodd">
        <g id="3.16侧导航" transform="translate(-232.000000, -239.000000)">
            <g id="编组" transform="translate(232.000000, 239.000000)">
                <mask id="mask-2" fill="white">
                    <use xlink:href="#path-1"></use>
                </mask>
                <g id="Clip-2"></g>
                <path d="M13.479631,26.9548781 C6.03332129,26.9548781 1.16129032e-05,20.9209297 1.16129032e-05,13.4775813 C1.16129032e-05,6.03463935 6.03332129,-5.80645161e-06 13.479631,-5.80645161e-06 C20.9215858,-5.80645161e-06 26.9548955,6.03394258 26.9548955,13.4775813 C26.9548955,20.9166329 20.9215858,26.9548781 13.479631,26.9548781 L13.479631,26.9548781 Z M4.10761161,8.61374903 C4.61956645,8.41505226 5.15619871,9.15810387 5.15619871,9.15810387 C6.06688258,9.55526516 6.20815355,8.61374903 6.20815355,8.61374903 C6.78606968,6.86502 8.30799871,5.88924581 8.30799871,5.88924581 L9.88485677,5.88924581 L10.932689,4.79734258 C11.3482568,3.22553613 9.88485677,3.70456839 9.88485677,3.70456839 C9.21891484,4.23144581 8.30799871,4.25298774 8.30799871,4.25298774 C8.5459471,3.41581355 10.4087729,3.16044581 10.4087729,3.16044581 C10.6045084,2.81066516 9.88416,2.61702 9.88416,2.61702 C8.42912129,1.82652968 2.65263097,6.45514258 2.53243742,9.1574071 C2.41967613,11.7356458 4.42789548,12.3702329 4.6111471,12.4260329 C4.60708258,12.6031877 4.6111471,13.0520265 4.63228258,14.0670523 C4.67420516,16.463549 5.15619871,16.7917877 5.15619871,16.7917877 C5.15619871,16.7917877 6.1913729,18.7301555 6.73212774,19.519891 C6.95259871,23.341349 8.8319729,24.4247748 8.8319729,24.4247748 C9.8183729,24.4898652 9.88485677,23.3369361 9.88485677,23.3369361 C9.88485677,23.3369361 9.40623097,22.8579039 9.36018581,21.7002716 C9.31123742,20.5349168 10.4044761,20.0597168 10.4044761,20.0597168 C11.3523213,19.494749 11.9679213,18.1256458 12.5045535,16.7867942 C13.0409535,15.4485813 11.7728245,14.5288394 11.4566632,14.6064135 C11.1361471,14.6849168 7.48899871,12.2840652 7.25604387,11.8826071 C7.02308903,11.481149 4.63228258,11.8826071 4.63228258,11.8826071 L4.63228258,11.3384845 C4.12009548,11.1529103 4.10761161,10.2506458 4.10761161,10.2506458 C3.66260516,9.64212968 4.10761161,8.61374903 4.10761161,8.61374903 L4.10761161,8.61374903 Z M13.0402568,1.69228452 C11.6104181,1.7900071 11.8013923,3.23529097 11.8013923,3.23529097 C12.4870761,3.53740065 13.0402568,3.23529097 13.0402568,3.23529097 C13.3732568,2.51267806 14.2741277,2.72112968 14.2741277,2.72112968 C14.3623858,2.57004581 14.4700955,1.58997484 13.0402568,1.69292323 L13.0402568,1.69228452 Z M25.2522116,11.7692071 C25.2306116,9.76302 23.8897277,6.35718774 20.8258955,5.95137484 C17.7625277,5.54515548 16.4000439,7.53862645 16.4000439,7.53862645 C15.4136439,8.73690387 16.3161406,12.8200006 18.6133471,12.8291168 C19.4806568,12.8291168 20.1599535,13.1221103 20.6684826,13.4907039 C21.5056568,14.09382 21.8912632,14.9024265 21.9345794,14.944349 C22.0842697,15.0947361 22.1275858,15.4884716 22.004432,15.94962 C21.8907987,16.3646652 21.6773535,16.7457426 21.3825019,17.0596394 C21.084689,17.377891 21.4525858,17.7507232 21.3825019,18.1145555 C21.2776955,18.672091 20.82996,19.1742329 20.82996,19.1742329 C21.1810761,19.6226652 21.5889213,19.1742329 21.9352761,19.1742329 C22.85496,19.1785297 23.0439019,18.1145555 23.0439019,18.1145555 C23.3419471,17.8591877 23.9461665,17.9675942 24.1478245,17.5869813 C24.2707471,17.352691 24.1002116,16.9294587 24.1435277,16.6568458 C24.2442116,16.0748071 24.8094697,15.7354781 24.936689,15.1829942 C25.1997794,14.0566006 25.2522116,12.9667877 25.2612697,12.3344071 C25.2655665,12.384749 25.2655665,12.4310265 25.2655665,12.4770716 C25.2655665,12.5686974 25.269631,12.6240329 25.269631,12.6485361 C25.269631,12.6696135 25.269631,12.6696135 25.269631,12.6485361 C25.269631,12.6190394 25.2655665,12.5569103 25.2655665,12.4770716 C25.2655665,12.435091 25.2655665,12.3931684 25.2612697,12.3344071 C25.2655665,11.9867168 25.2522116,11.7692071 25.2522116,11.7692071 L25.2522116,11.7692071 Z M25.3178512,11.9147748 C25.3178512,11.81682 25.2722752,11.7308265 25.2722752,11.6698587 C25.3178512,11.7567232 25.3178512,11.84202 25.3178512,11.9147748 L25.3178512,11.9147748 Z M25.3178512,11.9147748 C25.2722752,11.8288394 25.2722752,11.7567232 25.2722752,11.6707297 C25.3178512,11.7426716 25.3178512,11.8288394 25.3178512,11.9154716 L25.3178512,11.9147748 Z M4.2727471,11.9147748 C4.2727471,11.9147748 4.22374065,11.9057168 4.15098581,11.9057168 C4.17543097,11.3720458 4.2727471,11.9147748 4.2727471,11.9147748 L4.2727471,11.9147748 Z" id="Fill-1" fill="url(#linearGradient-3)" mask="url(#mask-2)"></path>
            </g>
        </g>
    </g>
</svg>