<?xml version="1.0" encoding="UTF-8"?>
<svg width="30px" height="27px" viewBox="0 0 30 27" version="1.1" xmlns="http://www.w3.org/2000/svg" xmlns:xlink="http://www.w3.org/1999/xlink">
    <!-- Generator: Sketch 60.1 (88133) - https://sketch.com -->
    <title>编组备份@1.5x</title>
    <desc>Created with Sketch.</desc>
    <defs>
        <polygon id="path-1" points="0 0 29.7 0 29.7 27 0 27"></polygon>
        <linearGradient x1="90.2698864%" y1="81.2951963%" x2="20.5681818%" y2="17.7944215%" id="linearGradient-3">
            <stop stop-color="#8978E7" offset="0%"></stop>
            <stop stop-color="#FFA7D8" offset="100%"></stop>
        </linearGradient>
    </defs>
    <g id="页面-1" stroke="none" stroke-width="1" fill="none" fill-rule="evenodd">
        <g id="3.16侧导航" transform="translate(-79.000000, -239.000000)">
            <g id="编组备份" transform="translate(79.000000, 239.000000)">
                <mask id="mask-2" fill="white">
                    <use xlink:href="#path-1"></use>
                </mask>
                <g id="Clip-2"></g>
                <path d="M23.1872878,19.5375983 C22.5307648,19.904582 21.7221269,19.904582 21.0658111,19.5375983 C20.4094953,19.1708152 20.0050987,18.4929985 20.0050987,17.7591816 C20.0050987,17.0256154 20.4094953,16.3477986 21.0658111,15.9810155 C21.7221269,15.6139817 22.5307648,15.6139817 23.1872878,15.9810155 C23.8436036,16.3477986 24.248052,17.0256154 24.248052,17.7591816 C24.248052,18.4929985 23.8436036,19.1708152 23.1872878,19.5375983 M10.7556655,18.7860339 L9.69490131,18.7860339 L9.69490131,19.8127358 C9.69490131,20.4972204 9.34146861,20.8395881 8.63418887,20.8395881 C7.9271163,20.8395881 7.57342464,20.4972204 7.57342464,19.8127358 L7.57342464,18.7860339 L6.51291938,18.7860339 C5.80563964,18.7860339 5.45215515,18.4438668 5.45215515,17.7591816 C5.45215515,17.0747471 5.80563964,16.7326802 6.51291938,16.7326802 L7.57342464,16.7326802 L7.57342464,15.7058279 C7.57342464,15.0211929 7.9271163,14.679126 8.63418887,14.679126 C9.34146861,14.679126 9.69490131,15.0211929 9.69490131,15.7058279 L9.69490131,16.7326802 L10.7556655,16.7326802 C11.4627381,16.7326802 11.816378,17.0747471 11.816378,17.7591816 C11.816378,18.4438668 11.4627381,18.7860339 10.7556655,18.7860339 M20.1535881,8.51861384 L15.9158658,8.51861384 C15.9158658,8.4844222 15.9142084,8.45013029 15.9106347,8.41578824 L15.9106347,6.36243458 C15.9207343,5.45099161 16.3019278,4.58010736 16.971399,3.93913936 L19.0928756,1.8857857 C19.4568222,1.65491689 19.6383035,1.2322841 19.5504633,0.819828583 C19.462882,0.407473336 19.1237958,0.0886187018 18.6953156,0.0155227808 C18.2667837,-0.0573224683 17.8356621,0.130480906 17.6078782,0.489292639 L15.4864016,2.54284684 C14.4037809,3.57922467 13.7928354,4.99100871 13.7893653,6.46505965 L13.7893653,8.51861384 L9.54641192,8.51861384 C3.1821891,8.51861384 0,11.5987195 0,17.7591816 C0,23.9198442 3.1821891,27 9.54641192,27 L20.1535881,27 C26.5178109,27 29.7,23.9198442 29.7,17.7591816 C29.7,11.5987195 26.5178109,8.51861384 20.1535881,8.51861384" id="Fill-1" fill="url(#linearGradient-3)" mask="url(#mask-2)"></path>
            </g>
        </g>
    </g>
</svg>