<?xml version="1.0" encoding="UTF-8"?>
<svg width="29px" height="27px" viewBox="0 0 29 27" version="1.1" xmlns="http://www.w3.org/2000/svg" xmlns:xlink="http://www.w3.org/1999/xlink">
    <!-- Generator: Sketch 60.1 (88133) - https://sketch.com -->
    <title>编组备份@1.5x</title>
    <desc>Created with Sketch.</desc>
    <defs>
        <linearGradient x1="25.4612576%" y1="24.2386771%" x2="79.2638475%" y2="80.2057181%" id="linearGradient-1">
            <stop stop-color="#FF8A6B" offset="0%"></stop>
            <stop stop-color="#FC797D" offset="99.9129012%"></stop>
        </linearGradient>
    </defs>
    <g id="页面-1" stroke="none" stroke-width="1" fill="none" fill-rule="evenodd">
        <g id="3.16侧导航" transform="translate(-231.000000, -172.000000)" fill="url(#linearGradient-1)">
            <g id="编组备份" transform="translate(231.000000, 172.000000)">
                <path d="M21.0649143,12.0471087 L15.6904919,18.3109991 C15.319814,18.7494692 14.7639329,18.999993 14.2079009,18.999993 C13.6518992,18.999993 13.096018,18.7494692 12.7253401,18.3109991 L7.28917326,12.0471087 C6.8567509,11.5459082 6.91852552,10.7316982 7.41269235,10.293228 C7.9069195,9.85475781 8.70992928,9.91736583 9.14235165,10.418444 L14.2079009,16.3064722 L19.2116455,10.4811744 C19.6440678,9.97997384 20.4471681,9.91736583 20.9413048,10.355836 C21.4973367,10.7316982 21.5590812,11.4833002 21.0649143,12.0471087 M27.8736515,9.39826252 L23.5304771,1.13924676 C23.1745168,0.427221879 22.4625267,-6.95302843e-06 21.6793723,-6.95302843e-06 L6.51387863,-6.95302843e-06 C5.73072427,-6.95302843e-06 5.0186994,0.427221879 4.66273911,1.13924676 L0.248400417,9.39826252 C-0.178828415,10.1814169 -0.0363956273,11.1070388 0.533196462,11.8190637 L12.4946999,25.6316718 C13.3490185,26.628458 14.8441629,26.628458 15.6986206,25.6316718 L27.5888902,11.8190637 C28.1584475,11.1070388 28.3008803,10.1814169 27.8736515,9.39826252" id="Fill-1"></path>
            </g>
        </g>
    </g>
</svg>