<?xml version="1.0" encoding="UTF-8"?>
<svg width="21px" height="26px" viewBox="0 0 21 26" version="1.1" xmlns="http://www.w3.org/2000/svg" xmlns:xlink="http://www.w3.org/1999/xlink">
    <!-- Generator: Sketch 60.1 (88133) - https://sketch.com -->
    <title>编组@1.5x</title>
    <desc>Created with Sketch.</desc>
    <defs>
        <linearGradient x1="50%" y1="0.607052365%" x2="50%" y2="100%" id="linearGradient-1">
            <stop stop-color="#8ADD8F" offset="0%"></stop>
            <stop stop-color="#44C2AC" offset="100%"></stop>
        </linearGradient>
    </defs>
    <g id="页面-1" stroke="none" stroke-width="1" fill="none" fill-rule="evenodd">
        <g id="3.16侧导航" transform="translate(-304.000000, -239.000000)" fill="url(#linearGradient-1)">
            <g id="编组" transform="translate(304.000000, 239.000000)">
                <g transform="translate(0.037352, 0.002764)" id="Fill-3">
                    <path d="M13.2094934,5.04573183 C12.818903,5.04573183 12.5027179,4.71931225 12.5027179,4.31867414 C12.5027179,3.91769986 12.818903,3.59217673 13.2094934,3.59217673 C13.6002333,3.59217673 13.9156713,3.91699017 13.9156713,4.31867414 C13.9156713,4.7202087 13.5993742,5.04573183 13.2094934,5.04573183 L13.2094934,5.04573183 Z M7.55457953,5.04573183 C7.16398912,5.04573183 6.84769194,4.71931225 6.84769194,4.31867414 C6.84769194,3.91769986 7.16398912,3.59217673 7.55457953,3.59217673 C7.94442289,3.59217673 8.26154181,3.91699017 8.26154181,4.31867414 C8.26154181,4.7202087 7.94442289,5.04573183 7.55457953,5.04573183 L7.55457953,5.04573183 Z M13.6260435,2.13298146 L14.7406288,0.411574791 C14.8127182,0.300415084 14.7829486,0.149400738 14.6757109,0.0757051391 C14.56612,0.000702218579 14.4205217,0.0312188451 14.3477225,0.143125593 L13.7184152,1.11528745 L13.4530288,1.52395625 L13.1845423,1.93893755 C12.3327287,1.59910858 11.3833143,1.40883723 10.3812708,1.40883723 C9.37941403,1.40883723 8.42977546,1.59985562 7.57878366,1.93893755 L7.04580722,1.11528745 L6.41493107,0.143125593 C6.3428416,0.0319285341 6.19653362,0.00144925962 6.08765239,0.0757051391 C5.98037729,0.150259835 5.95064506,0.300415084 6.02273452,0.411574791 L7.13746916,2.13298146 C5.13812587,3.0911363 3.78467426,4.90812687 3.78467426,6.98628299 L16.9779793,6.98628299 C16.9779793,4.90812687 15.6252748,3.09188334 13.6260435,2.13384056 L13.6260435,2.13298146 Z M19.3349312,7.95624108 C18.5544974,7.95624108 17.9219777,8.60758617 17.9219777,9.41065529 L17.9219777,15.6338433 C17.9219777,16.4370992 18.5544974,17.0884069 19.3349312,17.0884069 C20.1154023,17.0884069 20.7478846,16.4370992 20.7478846,15.6338433 L20.7478846,9.41065529 C20.7478846,8.60668972 20.1154023,7.95553139 19.3349312,7.95553139 L19.3349312,7.95624108 Z M1.42843212,7.95624108 C0.647251299,7.95624108 0.0147690014,8.60758617 0.0147690014,9.41065529 L0.0147690014,15.6338433 C0.0147690014,16.4370992 0.647251299,17.0884069 1.42843212,17.0884069 C2.20890324,17.0884069 2.84224464,16.4370992 2.84224464,15.6338433 L2.84224464,9.41065529 C2.84224464,8.60668972 2.20890324,7.95553139 1.42843212,7.95553139 L1.42843212,7.95624108 Z M5.27744902,20.1624808 L6.35464485,20.1624808 C6.31863748,20.2900381 6.29835531,20.4261863 6.29835531,20.5656215 L6.29835531,23.6372675 C6.29835531,24.440486 6.93158465,25.0923914 7.71201842,25.0923914 C8.49319924,25.0923914 9.12568154,24.440486 9.12568154,23.6372675 L9.12568154,20.5656215 C9.12568154,20.4254393 9.10457763,20.2900381 9.06927994,20.1624808 L11.6948304,20.1624808 C11.6589351,20.2900381 11.6385035,20.4261863 11.6385035,20.5656215 L11.6385035,23.6372675 C11.6385035,24.440486 12.2717702,25.0923914 13.052204,25.0923914 C13.8326751,25.0923914 14.4660538,24.440486 14.4660538,23.6372675 L14.4660538,20.5656215 C14.4660538,20.4254393 14.4456223,20.2900381 14.4088305,20.1624808 L15.4859143,20.1624808 C16.3095644,20.1624808 16.9779793,19.4728125 16.9779793,18.6258174 L16.9779793,7.95624108 L3.78396457,7.95624108 L3.78396457,18.6258174 C3.78557071,19.4728125 4.45484478,20.1624808 5.27744902,20.1624808 Z"></path>
                </g>
            </g>
        </g>
    </g>
</svg>