<?xml version="1.0" encoding="UTF-8"?>
<svg width="27px" height="27px" viewBox="0 0 27 27" version="1.1" xmlns="http://www.w3.org/2000/svg" xmlns:xlink="http://www.w3.org/1999/xlink">
    <!-- Generator: Sketch 60.1 (88133) - https://sketch.com -->
    <title>编组备份@1.5x</title>
    <desc>Created with Sketch.</desc>
    <defs>
        <polygon id="path-1" points="5.06566604e-06 3.54596623e-05 26.9737092 3.54596623e-05 26.9737092 26.9737598 5.06566604e-06 26.9737598"></polygon>
        <linearGradient x1="25.4612576%" y1="20.7222965%" x2="79.2638475%" y2="84.3287518%" id="linearGradient-3">
            <stop stop-color="#FF8A6B" offset="0%"></stop>
            <stop stop-color="#FC797D" offset="99.9129012%"></stop>
        </linearGradient>
    </defs>
    <g id="页面-1" stroke="none" stroke-width="1" fill="none" fill-rule="evenodd">
        <g id="3.16侧导航" transform="translate(-302.000000, -172.000000)">
            <g id="编组备份" transform="translate(302.000000, 172.000000)">
                <mask id="mask-2" fill="white">
                    <use xlink:href="#path-1"></use>
                </mask>
                <g id="Clip-2"></g>
                <path d="M17.9771927,18.0645045 C17.8177255,18.4180373 17.4743747,18.6533882 17.0867499,18.6741574 C16.7836205,18.6741574 16.4954854,18.5415889 16.298431,18.3110505 L12.7399525,14.1611049 C12.5640726,13.9792475 12.4607837,13.7396921 12.4494872,13.4870167 L12.4494872,6.06915929 C12.4494872,5.49608049 12.9139075,5.03166023 13.4869863,5.03166023 C14.0598118,5.03166023 14.5242321,5.49608049 14.5242321,6.06915929 L14.5242321,13.1030899 L17.8442189,16.9935214 C18.0852433,17.2974614 18.1367105,17.7106677 17.9771927,18.0645045 M13.4869863,3.54596623e-05 C6.03827899,3.54596623e-05 5.06566604e-06,6.03830938 5.06566604e-06,13.4870167 C5.06566604e-06,18.3053263 2.57062795,22.7576921 6.74347036,25.1669229 C10.9163128,27.5760523 16.0574066,27.5760523 20.230249,25.1669229 C24.4030914,22.7576921 26.9737143,18.3053263 26.9737143,13.4870167 C26.9737143,6.03830938 20.935491,3.54596623e-05 13.4869863,3.54596623e-05" id="Fill-1" fill="url(#linearGradient-3)" mask="url(#mask-2)"></path>
            </g>
        </g>
    </g>
</svg>