<?xml version="1.0" encoding="UTF-8"?>
<svg width="27px" height="27px" viewBox="0 0 27 27" version="1.1" xmlns="http://www.w3.org/2000/svg" xmlns:xlink="http://www.w3.org/1999/xlink">
    <!-- Generator: Sketch 60.1 (88133) - https://sketch.com -->
    <title>编组@1.5x</title>
    <desc>Created with Sketch.</desc>
    <defs>
        <linearGradient x1="25.4612576%" y1="22.4429099%" x2="79.2638475%" y2="82.3112947%" id="linearGradient-1">
            <stop stop-color="#FF8A6B" offset="0%"></stop>
            <stop stop-color="#FC797D" offset="99.9129012%"></stop>
        </linearGradient>
    </defs>
    <g id="页面-1" stroke="none" stroke-width="1" fill="none" fill-rule="evenodd">
        <g id="3.16侧导航" transform="translate(-156.000000, -239.000000)" fill="url(#linearGradient-1)">
            <g id="编组" transform="translate(156.000000, 239.000000)">
                <path d="M26.639172,9.364626 L26.639172,25.395066 C26.639172,25.935066 26.098632,26.474526 25.559712,26.474526 L1.205712,26.474526 C0.590112,26.474526 0.126792,25.933986 0.126792,25.394526 L0.126792,18.458226 C0.126792,17.303166 0.666792,16.762626 1.282932,17.303166 L4.597452,19.923246 C5.059692,20.308266 5.677452,20.848266 6.061932,20.386026 L9.838692,15.838146 C10.223172,15.376446 10.839852,14.759766 11.302092,15.145326 L14.538852,17.997066 C15.001092,18.382086 15.926652,18.998766 16.234452,18.536526 L24.326352,8.824626 C25.406352,7.592346 26.639172,7.900146 26.639172,9.364626 Z M26.509356,1.889352 L16.567956,14.528592 C16.260156,14.913072 15.797376,15.144732 15.335136,15.221952 C14.872896,15.298632 14.332896,15.145272 14.025096,14.836392 L10.326096,11.752992 L6.626016,16.609212 C6.318216,16.994232 5.932656,17.224812 5.393736,17.303112 L5.162076,17.303112 C4.746816,17.292312 4.343976,17.158392 4.005936,16.917552 L0.769176,14.296932 C-0.001944,13.680792 -0.079164,12.524652 0.537516,11.752992 C1.153656,10.983492 2.310336,10.906272 3.080376,11.522412 L4.853736,12.987432 L8.553276,8.131212 C8.861616,7.746192 9.323316,7.515612 9.785556,7.437312 C10.248336,7.361172 10.788336,7.515612 11.172816,7.822872 L14.872896,10.906272 L19.651356,4.971672 L18.340776,3.893292 C17.415756,3.121632 17.646876,2.273832 18.803556,2.042712 L25.663176,0.578772 C26.895456,0.347652 27.203256,0.887112 26.509356,1.889352 Z" id="形状结合"></path>
            </g>
        </g>
    </g>
</svg>