<?xml version="1.0" encoding="UTF-8"?>
<svg width="27px" height="27px" viewBox="0 0 27 27" version="1.1" xmlns="http://www.w3.org/2000/svg" xmlns:xlink="http://www.w3.org/1999/xlink">
    <!-- Generator: Sketch 60.1 (88133) - https://sketch.com -->
    <title>编组@1.5x</title>
    <desc>Created with Sketch.</desc>
    <defs>
        <polygon id="path-1" points="0 0 26.9924987 0 26.9924987 26.9925025 0 26.9925025"></polygon>
        <linearGradient x1="90.2698864%" y1="87.8671875%" x2="20.5681818%" y2="11.03125%" id="linearGradient-3">
            <stop stop-color="#8978E7" offset="0%"></stop>
            <stop stop-color="#FFA7D8" offset="100%"></stop>
        </linearGradient>
    </defs>
    <g id="页面-1" stroke="none" stroke-width="1" fill="none" fill-rule="evenodd">
        <g id="3.16侧导航" transform="translate(-232.000000, -471.000000)">
            <g id="编组" transform="translate(232.000000, 471.000000)">
                <mask id="mask-2" fill="white">
                    <use xlink:href="#path-1"></use>
                </mask>
                <g id="Clip-2"></g>
                <path d="M12.5322477,13.4961552 L4.82007615,13.4961552 L4.82007615,19.280331 L6.74807197,19.280331 C7.32648201,19.280331 7.71216402,19.6658623 7.71216402,20.244423 L7.71216402,26.0284105 C7.71216402,26.6068205 7.32648201,26.9925025 6.74807197,26.9925025 L0.964084519,26.9925025 C0.385523849,26.9925025 -7.53138075e-06,26.6068205 -7.53138075e-06,26.0284105 L-7.53138075e-06,20.244423 C-7.53138075e-06,19.6658623 0.385523849,19.280331 0.964084519,19.280331 L2.89208033,19.280331 L2.89208033,13.0142975 C2.89208033,12.2430464 3.56681674,11.5681594 4.33803013,11.5681594 L12.5322477,11.5681594 L12.5322477,7.71216778 L10.6042519,7.71216778 C10.0256912,7.71216778 9.64015983,7.32648577 9.64015983,6.74807573 L9.64015983,0.964088285 C9.64015983,0.385527615 10.0256912,-3.76569038e-06 10.6042519,-3.76569038e-06 L16.3882393,-3.76569038e-06 C16.9666494,-3.76569038e-06 17.3523314,0.385527615 17.3523314,0.964088285 L17.3523314,6.74807573 C17.3523314,7.32648577 16.9666494,7.71216778 16.3882393,7.71216778 L14.4602435,7.71216778 L14.4602435,11.5681594 L22.6544611,11.5681594 C23.4255238,11.5681594 24.1004109,12.2430464 24.1004109,13.0142975 L24.1004109,19.280331 L26.0284067,19.280331 C26.6068167,19.280331 26.9924987,19.6658623 26.9924987,20.244423 L26.9924987,26.0284105 C26.9924987,26.6068205 26.6068167,26.9925025 26.0284067,26.9925025 L20.2444192,26.9925025 C19.6658586,26.9925025 19.2803272,26.6068205 19.2803272,26.0284105 L19.2803272,20.244423 C19.2803272,19.6658623 19.6658586,19.280331 20.2444192,19.280331 L22.1724151,19.280331 L22.1724151,13.4961552 L14.4602435,13.4961552 L14.4602435,19.280331 L16.3882393,19.280331 C16.9666494,19.280331 17.3523314,19.6658623 17.3523314,20.244423 L17.3523314,26.0284105 C17.3523314,26.6068205 16.9666494,26.9925025 16.3882393,26.9925025 L10.6042519,26.9925025 C10.0256912,26.9925025 9.64015983,26.6068205 9.64015983,26.0284105 L9.64015983,20.244423 C9.64015983,19.6658623 10.0256912,19.280331 10.6042519,19.280331 L12.5322477,19.280331 L12.5322477,13.4961552 Z" id="Fill-1" fill="url(#linearGradient-3)" mask="url(#mask-2)"></path>
            </g>
        </g>
    </g>
</svg>