<?xml version="1.0" encoding="UTF-8"?>
<svg width="27px" height="27px" viewBox="0 0 27 27" version="1.1" xmlns="http://www.w3.org/2000/svg" xmlns:xlink="http://www.w3.org/1999/xlink">
    <!-- Generator: Sketch 60.1 (88133) - https://sketch.com -->
    <title>编组@1.5x</title>
    <desc>Created with Sketch.</desc>
    <defs>
        <polygon id="path-1" points="0 7.5e-06 27 7.5e-06 27 27 0 27"></polygon>
        <linearGradient x1="25.4612576%" y1="20.7222965%" x2="79.2638475%" y2="84.3287518%" id="linearGradient-3">
            <stop stop-color="#FF8A6B" offset="0%"></stop>
            <stop stop-color="#FC797D" offset="99.9129012%"></stop>
        </linearGradient>
        <linearGradient x1="29.9533607%" y1="20.7222965%" x2="73.9067588%" y2="84.3287518%" id="linearGradient-4">
            <stop stop-color="#FF8A6B" offset="0%"></stop>
            <stop stop-color="#FC797D" offset="99.9129012%"></stop>
        </linearGradient>
    </defs>
    <g id="页面-1" stroke="none" stroke-width="1" fill="none" fill-rule="evenodd">
        <g id="3.16侧导航" transform="translate(-156.000000, -106.000000)">
            <g id="编组" transform="translate(156.000000, 106.000000)">
                <g>
                    <mask id="mask-2" fill="white">
                        <use xlink:href="#path-1"></use>
                    </mask>
                    <g id="Clip-2"></g>
                    <path d="M3.95625,17.1090825 C3.95625,17.5872075 4.6642125,18.29517 5.1424875,18.29517 L7.5175875,18.29517 C8.4915375,18.29517 8.703825,19.8777825 8.703825,19.4814075 L8.703825,21.8566575 C8.703825,22.3347825 9.41175,23.0427075 9.889875,23.0427075 L17.0127,23.0427075 C17.490825,23.0427075 18.1987875,22.3347825 18.1987875,21.8566575 L18.1987875,19.4814075 C18.1987875,19.8777825 18.2075625,18.29517 19.385025,18.29517 L21.7602375,18.29517 C22.2383625,18.29517 22.946325,17.5872075 22.946325,17.1090825 L22.946325,5.23887 C22.946325,4.761195 22.2383625,4.0526325 21.7602375,4.0526325 L5.1424875,4.0526325 C4.6642125,4.0526325 3.95625,4.761195 3.95625,5.23887 L3.95625,17.1090825 Z M22.8192,27.0000075 L4.1808,27.0000075 C1.8747,26.9931075 0.0069,25.1253075 0,22.8192075 L0,4.1808075 C0.0069,1.8747075 1.8747,0.0069075 4.1808,7.5e-06 L22.8192,7.5e-06 C25.1253,0.0069075 26.9931,1.8747075 27,4.1808075 L27,22.8192075 C26.9931,25.1253075 25.1253,26.9931075 22.8192,27.0000075 L22.8192,27.0000075 Z" id="Fill-1" fill="url(#linearGradient-3)" mask="url(#mask-2)"></path>
                </g>
                <path d="M17.2458975,12.9615412 L15.34686,12.9615412 L15.34686,9.16642875 C15.34716,8.91502875 15.24741,8.67379125 15.069735,8.49607875 C14.89191,8.31825375 14.650785,8.21850375 14.3994225,8.21880308 L12.500385,8.21880308 C12.2490225,8.21850375 12.0077475,8.31825375 11.8300725,8.49607875 C11.6522475,8.67379125 11.55246,8.91502875 11.5527975,9.16642875 L11.5527975,12.9594787 L9.65376,12.9594787 C9.1297725,12.9594787 9.006585,13.2599288 9.3767475,13.6305037 L13.449285,17.7007162 L17.5200975,13.6305037 C17.8901475,13.2599288 17.76696,12.9594787 17.2429725,12.9594787 L17.2458975,12.9615412 Z" id="Fill-3" fill="url(#linearGradient-4)"></path>
            </g>
        </g>
    </g>
</svg>