<?xml version="1.0" encoding="UTF-8"?>
<svg width="25px" height="27px" viewBox="0 0 25 27" version="1.1" xmlns="http://www.w3.org/2000/svg" xmlns:xlink="http://www.w3.org/1999/xlink">
    <!-- Generator: Sketch 60.1 (88133) - https://sketch.com -->
    <title>编组备份 2@1.5x</title>
    <desc>Created with Sketch.</desc>
    <defs>
        <linearGradient x1="29.5242476%" y1="20.7222965%" x2="74.4185005%" y2="84.3287518%" id="linearGradient-1">
            <stop stop-color="#FF8A6B" offset="0%"></stop>
            <stop stop-color="#FC797D" offset="99.9129012%"></stop>
        </linearGradient>
    </defs>
    <g id="页面-1" stroke="none" stroke-width="1" fill="none" fill-rule="evenodd">
        <g id="3.16侧导航" transform="translate(-233.000000, -355.000000)" fill="url(#linearGradient-1)">
            <g id="编组备份-2" transform="translate(233.000000, 355.000000)">
                <path d="M11.4681228,13.9065103 C11.1973957,13.5740831 10.9757446,13.2046094 10.809878,12.8092263 L5.81785226,15.4974613 C4.83055116,14.3455494 3.0750224,14.016361 1.70393794,14.7839607 C0.111962424,15.662039 -0.491158752,17.5820464 0.441514443,19.1729644 C1.31909706,20.7086596 3.34895508,21.2575494 4.93990612,20.3796033 C6.36624639,19.6113756 6.96923537,18.0205568 6.4755683,16.5947453 L11.467594,13.9065103 L11.4681228,13.9065103 Z M20.6845414,18.6240745 L16.3507935,13.6873047 C16.0737543,14.0187073 15.7392782,14.2973989 15.3633602,14.5101602 L19.6971081,19.4468971 C18.9562439,20.4787465 19.0723076,21.895536 19.9710408,22.7932447 C21.0135977,23.8358016 22.7143994,23.8905286 23.8111876,22.8479717 C24.8537446,21.8605715 24.9630665,20.2150256 23.8663113,19.1177086 C22.9883321,18.2950182 21.6718425,18.1304405 20.6845414,18.6240745 L20.6845414,18.6240745 Z M2.7459661,10.6694846 C4.06245569,11.3277294 5.70800159,10.943946 6.53082411,9.79210024 L10.7552501,11.4376131 C10.809878,10.9985739 10.9744557,10.6147906 11.2489171,10.2309742 L7.0249869,8.58542827 C7.18959767,7.43354945 6.58594774,6.22638176 5.48879596,5.62276487 C4.06245569,4.90939645 2.30692693,5.40303048 1.53932717,6.82940379 C0.771231701,8.20111616 1.31962583,9.90191787 2.7459661,10.6694846 L2.7459661,10.6694846 Z M12.6205304,20.3796033 L13.8271362,14.9490672 C13.3880971,14.9490672 12.9497188,14.8386878 12.5654067,14.67411 L11.3587678,20.1051419 C9.54864419,19.99582 8.0124202,21.2570537 7.79258666,23.0671774 C7.57338103,24.9325898 8.94446548,26.6879864 10.809878,26.9624148 C12.7298523,27.2368763 14.4301252,25.9203867 14.7051154,24.0551394 C14.8696931,22.4094613 13.991747,20.9831211 12.6205304,20.3796033 L12.6205304,20.3796033 Z M10.5359453,4.58020796 L12.2362182,9.24314431 C12.6205304,9.02383953 13.0043137,8.85936095 13.4433529,8.8046339 L11.7425512,4.08654088 C12.5654067,3.53814676 12.9497188,2.49562289 12.6205304,1.56344541 C12.2362182,0.356409914 10.9197286,-0.246711261 9.712594,0.137072093 C8.50608727,0.520888494 7.79308237,1.83737809 8.17689878,2.98925692 C8.50608727,4.08654088 9.49338837,4.69005863 10.5359453,4.58020796 L10.5359453,4.58020796 Z M20.903747,12.48017 L16.9542782,11.7666694 L16.9542782,11.8766523 C16.9542782,12.3155592 16.8444275,12.6993426 16.7345769,13.0285311 L20.6840457,13.7419326 C20.7944251,14.5094993 21.3974141,15.1131492 22.1655095,15.3328506 C23.2080665,15.6067832 24.3048217,14.9485384 24.5792831,13.9065103 C24.8537446,12.8639534 24.1954998,11.8219252 23.0981827,11.5474638 C22.2202366,11.382853 21.3427862,11.7666694 20.903747,12.48017 L20.903747,12.48017 Z M14.3760591,8.91395581 C14.8060432,8.96818715 15.2183798,9.11819082 15.582665,9.35302803 L17.3380946,5.07453599 C18.0510665,5.07453599 18.7644349,4.69005863 19.0936234,3.97721897 C19.3019563,3.53494113 19.3201656,3.0267 19.1439551,2.5706082 C18.9677446,2.11468164 18.6124814,1.75072693 18.1609171,1.56344541 C17.2282109,1.17913329 16.1309269,1.56344541 15.6925487,2.49562289 C15.3633602,3.26371836 15.5279379,4.08654088 16.1309269,4.58020796 L14.3760591,8.91395581 Z M16.2409098,9.95654578 C16.5153712,10.2857012 16.7345769,10.6694846 16.8444275,11.1084576 L20.2455022,9.35302803 C20.7944251,9.79210024 21.5072647,9.90191787 22.1655095,9.57272938 C23.0435879,9.1338224 23.3726442,8.0917612 22.9337372,7.26893868 C22.494698,6.44558739 21.4526699,6.11653109 20.5746907,6.55547111 C19.9529967,6.85802313 19.582102,7.51226916 19.6419845,8.20111616 L16.2409098,9.95654578 Z" id="Fill-1"></path>
            </g>
        </g>
    </g>
</svg>