<?xml version="1.0" encoding="UTF-8"?>
<svg width="24px" height="27px" viewBox="0 0 24 27" version="1.1" xmlns="http://www.w3.org/2000/svg" xmlns:xlink="http://www.w3.org/1999/xlink">
    <!-- Generator: Sketch 60.1 (88133) - https://sketch.com -->
    <title>编组@1.5x</title>
    <desc>Created with Sketch.</desc>
    <defs>
        <linearGradient x1="50%" y1="0.607052365%" x2="50%" y2="100%" id="linearGradient-1">
            <stop stop-color="#8ADD8F" offset="0%"></stop>
            <stop stop-color="#44C2AC" offset="100%"></stop>
        </linearGradient>
    </defs>
    <g id="页面-1" stroke="none" stroke-width="1" fill="none" fill-rule="evenodd">
        <g id="3.16侧导航" transform="translate(-82.000000, -355.000000)" fill="url(#linearGradient-1)">
            <g id="编组" transform="translate(82.000000, 355.000000)">
                <path d="M2.12809793,-1.77635684e-15 C3.30330504,-1.77635684e-15 4.25605973,1.16048145 4.25605973,2.59217089 L4.25605973,23.4800533 C4.25605973,24.9086491 3.30330504,26.0689655 2.12809793,26.0689655 C0.952725818,26.0689655 1.2374509e-05,24.9086491 1.2374509e-05,23.4770009 L1.2374509e-05,2.59217089 C1.2374509e-05,1.16048145 0.952725818,-1.77635684e-15 2.12809793,-1.77635684e-15 Z M11.5333888,4.39270319 C12.7087609,4.39270319 13.6614744,5.55306089 13.6614744,6.98470908 L13.6614744,23.4770009 C13.6614744,24.9086491 12.7087609,26.0689655 11.5333888,26.0689655 C10.3581817,26.0689655 9.40542702,24.9086491 9.40542702,23.4770009 L9.40542702,6.98470908 C9.40542702,5.55306089 10.3581817,4.39270319 11.5333888,4.39270319 Z M20.9389602,9.60517634 C22.1142911,9.60517634 23.066922,10.765699 23.066922,12.197306 L23.066922,23.4770009 C23.0643234,24.9086491 22.1142911,26.0689655 20.9389602,26.0689655 C19.7635881,26.0689655 18.8108334,24.9086491 18.8108334,23.4770009 L18.8108334,12.197306 C18.8108334,10.765699 19.7635881,9.60517634 20.9389602,9.60517634 Z" id="形状结合"></path>
            </g>
        </g>
    </g>
</svg>