<?xml version="1.0" encoding="UTF-8"?>
<svg width="27px" height="27px" viewBox="0 0 27 27" version="1.1" xmlns="http://www.w3.org/2000/svg" xmlns:xlink="http://www.w3.org/1999/xlink">
    <!-- Generator: Sketch 60.1 (88133) - https://sketch.com -->
    <title>编组@1.5x</title>
    <desc>Created with Sketch.</desc>
    <defs>
        <linearGradient x1="50%" y1="0.607052365%" x2="50%" y2="100%" id="linearGradient-1">
            <stop stop-color="#8ADD8F" offset="0%"></stop>
            <stop stop-color="#44C2AC" offset="100%"></stop>
        </linearGradient>
    </defs>
    <g id="页面-1" stroke="none" stroke-width="1" fill="none" fill-rule="evenodd">
        <g id="3.16侧导航" transform="translate(-156.000000, -471.000000)" fill="url(#linearGradient-1)">
            <g id="编组" transform="translate(156.000000, 471.000000)">
                <path d="M13.4704644,0.0499878197 C20.899378,0.075409257 26.9153463,6.09150914 26.9407677,13.5204555 C26.9407677,20.9598928 20.9099017,26.9907588 13.4704644,26.9907588 C6.03086273,26.9907588 -3.28867239e-06,20.9598928 -3.28867239e-06,13.5204555 C-3.28867239e-06,6.08085384 6.03086273,0.0499878197 13.4704644,0.0499878197 Z M13.4704644,2.92960448 C10.6602939,2.92563581 7.96424032,4.04019976 5.97729026,6.02728136 C3.99020865,8.01423143 2.8756447,10.710285 2.87961338,13.5204555 C2.87961338,19.3695238 7.62123179,24.1111315 13.4704644,24.1111315 C19.3195326,24.1111315 24.0611404,19.3695238 24.0611404,13.5204555 C24.0611404,7.6712229 19.3195326,2.92960448 13.4704644,2.92960448 Z M13.4704644,5.80786114 C17.7173244,5.83805116 21.1528359,9.27343118 21.1828944,13.5204555 C21.1828944,17.7799111 17.72992,21.2328855 13.4704644,21.2328855 C9.21084446,21.2328855 5.75787004,17.7799111 5.75787004,13.5204555 C5.75787004,9.26083557 9.21084446,5.80786114 13.4704644,5.80786114 Z M13.4704644,8.6875178 C12.1881124,8.68597564 10.9579516,9.19453593 10.0512647,10.1012558 C9.14454482,11.0079428 8.63598453,12.2381035 8.63752669,13.5204555 C8.63752669,16.189542 10.8012464,18.3532582 13.4704644,18.3532582 C16.1395509,18.3532582 18.3032671,16.189542 18.3032671,13.5204555 C18.3032671,10.8512046 16.1395509,8.6875178 13.4704644,8.6875178 Z M13.4704644,11.5671486 C13.9890552,11.5652083 14.4869931,11.7703886 14.8537458,12.1370097 C15.2204985,12.5037625 15.4256788,13.0017004 15.4236069,13.5204555 L15.4251526,13.5204555 C15.4448189,14.2313678 15.0767507,14.8968965 14.4641039,15.2581571 C13.85149,15.6195493 13.090853,15.6195493 12.4782062,15.2581571 C11.8655594,14.8968965 11.4974912,14.2313678 11.5171575,13.5204555 C11.4994315,12.9970633 11.6995801,12.4900487 12.0698189,12.11981 C12.4400576,11.7495713 12.9471051,11.5494227 13.4704644,11.5671486 Z" id="形状结合"></path>
            </g>
        </g>
    </g>
</svg>