<?xml version="1.0" standalone="no"?><!DOCTYPE svg PUBLIC "-//W3C//DTD SVG 1.1//EN" "http://www.w3.org/Graphics/SVG/1.1/DTD/svg11.dtd"><svg t="1583136602402" class="icon" viewBox="0 0 1024 1024" version="1.1" xmlns="http://www.w3.org/2000/svg" p-id="4514" xmlns:xlink="http://www.w3.org/1999/xlink" width="200" height="200"><defs><style type="text/css"></style></defs><path d="M510.082982 510.746553l0.131942-0.527767z m492.670532 442.664605L830.173692 780.831336a471.328952 471.328952 0 0 0 79.824765-493.528153A471.262982 471.262982 0 0 0 809.128981 137.747198 471.31246 471.31246 0 0 0 293.30267 36.943693a470.682438 470.682438 0 0 0 366.270326 867.187218 463.099085 463.099085 0 0 0 113.469914-68.345832l173.767298 173.701327a39.500064 39.500064 0 0 0 55.943306 0 39.730963 39.730963 0 0 0 0-56.075248z m-526.315681-91.435639c-215.856719 0-391.471202-175.548512-391.471202-391.471203S260.581114 79.033114 476.437833 79.033114 867.909036 254.647597 867.909036 470.504316 692.294553 861.975519 476.437833 861.975519z" p-id="4515"></path></svg>