<?xml version="1.0" standalone="no"?><!DOCTYPE svg PUBLIC "-//W3C//DTD SVG 1.1//EN" "http://www.w3.org/Graphics/SVG/1.1/DTD/svg11.dtd"><svg t="1583136613651" class="icon" viewBox="0 0 1024 1024" version="1.1" xmlns="http://www.w3.org/2000/svg" p-id="4633" xmlns:xlink="http://www.w3.org/1999/xlink" width="200" height="200"><defs><style type="text/css"></style></defs><path d="M691.389738 569.753133a308.130143 308.130143 0 0 0 136.588429-256.032409C827.978167 140.850234 684.907905 0 509.315045 0S192.758519 140.850234 192.758519 311.54931a308.162552 308.162552 0 0 0 136.588429 256.032409C142.961836 640.194455 12.887649 815.317382 12.887649 1022.379542h88.882137c0-204.858336 158.237752-373.612862 359.838967-397.01228 2.171414 0 56.359539-4.261805 101.894417 0h4.342828c197.290796 27.75845 349.014306 194.195721 349.014306 396.915052H1007.849037c-2.171414-204.858336-132.229396-381.958223-316.524117-452.399544z m-182.074693-23.48044c-132.229396 0-238.434232-104.551969-238.434232-234.723383S377.085649 76.825927 509.315045 76.825927s238.434232 104.535764 238.434232 234.723383S641.625464 546.272693 509.315045 546.272693z" p-id="4634"></path></svg>