<?xml version="1.0" standalone="no"?><!DOCTYPE svg PUBLIC "-//W3C//DTD SVG 1.1//EN" "http://www.w3.org/Graphics/SVG/1.1/DTD/svg11.dtd"><svg t="1585218247334" class="icon" viewBox="0 0 1024 1024" version="1.1" xmlns="http://www.w3.org/2000/svg" p-id="2293" xmlns:xlink="http://www.w3.org/1999/xlink" width="200" height="200"><defs><style type="text/css"></style></defs><path d="M829.96226 455.900139c-11.361997-5.680999-28.404993-5.680999-45.447989-5.680999h-204.51595v-11.361997c17.042996-68.171983 22.723994-136.343967 5.680998-210.196949-5.680999-28.404993-17.042996-51.128988-34.085991-68.171983-39.76699-39.76699-119.300971-34.085992-147.705964 28.404993-11.361997 28.404993-11.361997 56.809986-17.042996 85.214979-5.680999 96.576976-90.895978 187.472954-187.472954 204.51595-11.361997 0-17.042996 5.680999-17.042996 17.042996V1024h545.375867c22.723994 0 34.085992-11.361997 51.128987-22.723994 28.404993-22.723994 39.76699-51.128988 45.447989-85.21498 22.723994-113.619972 51.128988-232.920943 73.852982-346.540915 11.361997-45.447989-22.723994-96.576976-68.171983-113.619972zM91.43244 484.305132H40.303453c-22.723994 0-39.76699 17.042996-39.766991 45.447989v454.479889c0 22.723994 17.042996 39.76699 39.766991 39.76699h45.447988c34.085992 0 45.447989-17.042996 45.447989-51.128988v-221.558945-221.558946c0-28.404993-11.361997-45.447989-39.76699-45.447989z" p-id="2294"></path><path d="M1006.073217 126.402219c-28.404993-5.680999-62.490985-11.361997-90.895978-22.723994-5.680999 0-11.361997-5.680999-17.042996-11.361998-17.042996-28.404993-34.085992-51.128988-51.128987-79.53398-11.361997-17.042996-22.723994-17.042996-34.085992 0-17.042996 28.404993-34.085992 51.128988-45.447989 79.53398l-17.042996 17.042996c-28.404993 5.680999-62.490985 11.361997-90.895978 22.723995-17.042996 5.680999-22.723994 17.042996-11.361997 28.404993 17.042996 22.723994 39.76699 45.447989 56.809986 68.171983 5.680999 5.680999 11.361997 17.042996 5.680999 28.404993-5.680999 28.404993-5.680999 56.809986-5.680999 85.214979 0 22.723994 5.680999 28.404993 28.404993 17.042996l85.214979-34.085991h22.723995l85.214979 34.085991c22.723994 11.361997 28.404993 0 28.404993-22.723994 0-28.404993-5.680999-56.809986-5.680998-90.895978 0-5.680999 5.680999-17.042996 5.680998-22.723994 17.042996-22.723994 39.76699-45.447989 56.809986-68.171984 17.042996-11.361997 11.361997-22.723994-5.680998-28.404993z" p-id="2295"></path></svg>