<?xml version="1.0" standalone="no"?><!DOCTYPE svg PUBLIC "-//W3C//DTD SVG 1.1//EN" "http://www.w3.org/Graphics/SVG/1.1/DTD/svg11.dtd"><svg t="1585218198728" class="icon" viewBox="0 0 1024 1024" version="1.1" xmlns="http://www.w3.org/2000/svg" p-id="1259" xmlns:xlink="http://www.w3.org/1999/xlink" width="200" height="200"><defs><style type="text/css"></style></defs><path d="M512 0c284.444444 0 512 227.555556 512 512s-227.555556 512-512 512-512-227.555556-512-512 227.555556-512 512-512zM347.022222 682.666667c-22.755556-22.755556-45.511111-34.133333-73.955555-28.444445h-5.688889l-28.444445 51.2c-11.377778 17.066667-5.688889 45.511111 11.377778 56.888889 17.066667 11.377778 45.511111 5.688889 56.888889-11.377778l5.688889-5.688889 34.133333-62.577777z m227.555556-341.333334c-28.444444 22.755556-51.2 79.644444-17.066667 142.222223l153.6 267.377777c11.377778 22.755556 39.822222 28.444444 56.888889 17.066667 17.066667-11.377778 22.755556-34.133333 17.066667-51.2v-5.688889l-39.822223-73.955555h62.577778c22.755556 0 39.822222-17.066667 39.822222-39.822223 0-22.755556-17.066667-39.822222-34.133333-39.822222h-113.777778l-113.777777-193.422222-11.377778-22.755556z m11.377778-153.6c-17.066667-11.377778-39.822222-5.688889-56.888889 11.377778l-17.066667 34.133333-17.066667-34.133333c-11.377778-17.066667-39.822222-22.755556-56.888889-11.377778-22.755556 5.688889-28.444444 28.444444-22.755555 51.2v5.688889l45.511111 73.955556-136.533333 238.933333H216.177778c-22.755556 0-39.822222 17.066667-39.822222 39.822222 0 22.755556 17.066667 39.822222 34.133333 39.822223h386.844444c17.066667-34.133333-5.688889-79.644444-39.822222-85.333334H420.977778l182.044444-312.888889c11.377778-17.066667 5.688889-39.822222-17.066666-51.2z" p-id="1260"></path></svg>