<?xml version="1.0" standalone="no"?><!DOCTYPE svg PUBLIC "-//W3C//DTD SVG 1.1//EN" "http://www.w3.org/Graphics/SVG/1.1/DTD/svg11.dtd"><svg t="1585218181500" class="icon" viewBox="0 0 1024 1024" version="1.1" xmlns="http://www.w3.org/2000/svg" p-id="1130" xmlns:xlink="http://www.w3.org/1999/xlink" width="200" height="200"><defs><style type="text/css"></style></defs><path d="M773.688889 301.511111h227.555555c-5.688889-11.377778-11.377778-22.755556-22.755555-28.444444l-250.311111-227.555556c-11.377778-5.688889-22.755556-17.066667-34.133334-22.755555V227.555556c0 39.822222 34.133333 73.955556 79.644445 73.955555z" p-id="1131"></path><path d="M625.777778 341.333333V0H125.155556C56.888889 0 0 56.888889 0 125.155556v768C0 967.111111 56.888889 1024 125.155556 1024h768c68.266667 0 125.155556-56.888889 125.155555-125.155556V398.222222h-341.333333c-28.444444 0-51.2-22.755556-51.2-56.888889z m142.222222 108.088889c11.377778 17.066667 11.377778 39.822222 0 56.888889l-193.422222 295.822222c-11.377778 17.066667-34.133333 28.444444-56.888889 28.444445H512h-5.688889c-22.755556 0-39.822222-11.377778-56.888889-28.444445L256 506.311111c-17.066667-28.444444-5.688889-62.577778 28.444444-79.644444 28.444444-17.066667 68.266667-5.688889 85.333334 22.755555L512 671.288889l142.222222-221.866667c11.377778-17.066667 34.133333-28.444444 56.888889-28.444444s45.511111 11.377778 56.888889 28.444444z" p-id="1132"></path></svg>